<?xml version="1.0" encoding="UTF-8"?>
<svg version="1.1" xmlns="http://www.w3.org/2000/svg" width="500" height="500">
<path d="M0 0 C165 0 330 0 500 0 C500 165 500 330 500 500 C335 500 170 500 0 500 C0 335 0 170 0 0 Z " fill="#163442" transform="translate(0,0)"/>
<path d="M0 0 C0.74804901 -0.00095673 1.49609802 -0.00191345 2.26681519 -0.00289917 C3.84535812 -0.00357893 5.42390386 -0.00173887 7.00244141 0.00244141 C9.42747205 0.0078076 11.85231875 0.00248186 14.27734375 -0.00390625 C15.80989624 -0.00324573 17.34244862 -0.0019651 18.875 0 C19.60413605 -0.00202423 20.33327209 -0.00404846 21.08450317 -0.00613403 C26.1897257 0.0178507 26.1897257 0.0178507 27.3046875 1.1328125 C27.5546875 4.0703125 27.5546875 4.0703125 27.3046875 7.1328125 C23.62498644 9.58594654 21.79135086 9.37250557 17.40625 9.37109375 C16.02603185 9.38651455 14.64582333 9.40281826 13.265625 9.41992188 C11.09743953 9.43636239 8.92996132 9.44531339 6.76171875 9.43823242 C4.66325602 9.43560457 2.56692692 9.46378154 0.46875 9.49609375 C-0.78470215 9.49907471 -2.0381543 9.50205566 -3.32958984 9.50512695 C-7.55792412 10.293684 -9.01114429 11.85150828 -11.6953125 15.1328125 C-12.0253125 15.7928125 -12.3553125 16.4528125 -12.6953125 17.1328125 C-11.28052612 17.10924683 -11.28052612 17.10924683 -9.8371582 17.08520508 C-6.32408102 17.03395243 -2.81140352 16.99640259 0.7019043 16.96801758 C2.21987188 16.95296897 3.73779626 16.93252512 5.25561523 16.90649414 C7.44265427 16.86993597 9.62911646 16.85304727 11.81640625 16.83984375 C13.13084717 16.8241333 14.44528809 16.80842285 15.79956055 16.79223633 C20.49691853 17.2486558 23.07870147 18.69544957 26.1171875 22.2578125 C28.03533485 26.90174818 28.25848381 31.42013375 26.578125 36.19921875 C25.13063302 39.01770924 23.84910454 40.85451484 21.00523376 42.30825806 C18.11880003 43.18956929 15.79684515 43.38418155 12.78344727 43.38818359 C11.16135094 43.39862198 11.16135094 43.39862198 9.50648499 43.40927124 C8.34805588 43.40827423 7.18962677 43.40727722 5.99609375 43.40625 C3.53319855 43.42653555 1.07030796 43.44738627 -1.39257812 43.46875 C-5.26802462 43.49136599 -9.14328933 43.5078283 -13.01879883 43.51367188 C-16.76416714 43.52319057 -20.50872045 43.55695779 -24.25390625 43.59375 C-25.41031113 43.58870453 -26.566716 43.58365906 -27.75816345 43.57846069 C-33.99694286 43.65475637 -38.00110394 43.83635022 -42.6953125 48.1328125 C-43.1903125 49.1228125 -43.1903125 49.1228125 -43.6953125 50.1328125 C-42.92967484 50.13867874 -42.16403717 50.14454498 -41.37519836 50.15058899 C-34.15091041 50.20855313 -26.92696588 50.28065066 -19.70298481 50.36852741 C-15.98926791 50.41320732 -12.27566011 50.45246836 -8.56176758 50.47924805 C-4.97594577 50.50530528 -1.39054431 50.54572393 2.19501686 50.59599876 C3.56125462 50.61265129 4.92756506 50.62417565 6.29389 50.63042641 C8.21126248 50.64008411 10.12850139 50.6698583 12.0456543 50.70043945 C13.13597458 50.71154251 14.22629486 50.72264557 15.34965515 50.73408508 C19.77557815 51.33128222 22.38259831 53.2854873 25.6171875 56.2578125 C27.96498043 60.25775601 27.99729783 63.59786388 27.3046875 68.1328125 C25.82875233 71.36581336 24.03875805 73.85442037 21.3046875 76.1328125 C17.80487146 77.29941785 15.03632793 77.27170892 11.34228516 77.29052734 C10.63786789 77.29560806 9.93345062 77.30068878 9.20768738 77.30592346 C7.67881129 77.31661796 6.14991964 77.32524175 4.62102127 77.33204269 C2.19976911 77.3438425 -0.22130556 77.36329791 -2.64248657 77.38516235 C-9.52624599 77.44674321 -16.40998667 77.50081952 -23.29394531 77.53417969 C-27.5056188 77.55513884 -31.71696756 77.59045092 -35.92845535 77.63493729 C-37.53194987 77.64908662 -39.13550183 77.65781733 -40.73905563 77.66099167 C-42.98442254 77.66590719 -45.22892934 77.68907992 -47.47412109 77.71630859 C-48.75080658 77.72439545 -50.02749207 77.7324823 -51.34286499 77.74081421 C-56.00731721 78.28622388 -58.5254496 79.72090899 -61.5078125 83.3203125 C-61.8996875 83.9184375 -62.2915625 84.5165625 -62.6953125 85.1328125 C-61.19313675 85.11948883 -61.19313675 85.11948883 -59.66061401 85.105896 C-50.21478223 85.02474733 -40.76902134 84.96481696 -31.32291985 84.92556381 C-26.46675951 84.90470475 -21.61088098 84.8764178 -16.75488281 84.83105469 C-12.06699994 84.78753699 -7.37938782 84.76366274 -2.69131851 84.75330353 C-0.90435652 84.74592279 0.88259094 84.73150979 2.66943741 84.70989227 C5.17594468 84.68077905 7.68133865 84.67685973 10.18798828 84.67871094 C10.92382645 84.66432983 11.65966461 84.64994873 12.4178009 84.63513184 C17.51816206 84.67578907 20.36655193 85.94559397 24.3046875 89.1328125 C27.27206747 92.69366846 27.78444369 95.70975627 27.58984375 100.2109375 C26.99961758 104.18890015 24.97954279 106.44162292 22.24699402 109.24031067 C18.22415704 111.82781346 15.10306178 111.70013511 10.4152832 111.6628418 C9.0876445 111.67593887 9.0876445 111.67593887 7.73318481 111.68930054 C4.81540564 111.7136463 1.89833645 111.71026799 -1.01953125 111.70703125 C-3.04784859 111.7194755 -5.07615515 111.73380947 -7.10444641 111.74995422 C-12.43838731 111.78798207 -17.77214247 111.80316917 -23.10620117 111.81274414 C-31.65479399 111.83248979 -40.20324519 111.88923475 -48.751688 111.94150734 C-51.74199788 111.95688962 -54.73223743 111.96405093 -57.72257996 111.96965027 C-59.54641759 111.97666385 -61.3702549 111.98376456 -63.1940918 111.9909668 C-64.02996323 111.99043808 -64.86583466 111.98990936 -65.72703552 111.98936462 C-69.84342929 111.90623389 -69.84342929 111.90623389 -73.6953125 113.1328125 C-73.3653125 114.7828125 -73.0353125 116.4328125 -72.6953125 118.1328125 C-71.56858124 118.13645813 -70.44184998 118.14010376 -69.28097534 118.14385986 C-58.65761532 118.18081646 -48.03454498 118.23859659 -37.41140556 118.31671524 C-31.95003948 118.35620819 -26.48883507 118.38838786 -21.02734375 118.40380859 C-15.75572793 118.41896303 -10.48455655 118.45338745 -5.21313858 118.50112152 C-3.20297231 118.51594776 -1.19274259 118.52385423 0.81747818 118.52469635 C3.6354728 118.52706398 6.45223718 118.55412742 9.27001953 118.58691406 C10.09936508 118.5818837 10.92871063 118.57685333 11.78318787 118.57167053 C17.0825297 118.66693518 20.08070117 119.65336808 24.3046875 123.1328125 C27.50346371 126.86471808 27.76720985 130.23788263 27.59375 134.984375 C27.05188913 139.01171932 25.29334187 141.26773992 22.3046875 143.8828125 C18.21882042 146.43647942 14.35879527 146.26928806 9.7121582 146.24633789 C8.55570297 146.24655693 8.55570297 146.24655693 7.37588501 146.2467804 C4.82738431 146.24608369 2.27895668 146.2383026 -0.26953125 146.23046875 C-2.03644267 146.22860371 -3.8033546 146.22718021 -5.57026672 146.22618103 C-10.22109403 146.22236262 -14.87189011 146.21253808 -19.52270508 146.20147705 C-24.26838763 146.19124841 -29.01407523 146.18668029 -33.75976562 146.18164062 C-43.0716283 146.17091523 -52.3834678 146.15384689 -61.6953125 146.1328125 C-60.70777941 148.82608456 -60.0443304 149.93554873 -57.51193237 151.36685181 C-54.11961925 152.28936838 -51.14725787 152.38463189 -47.62939453 152.38818359 C-46.59177979 152.39361427 -46.59177979 152.39361427 -45.53320312 152.39915466 C-44.03765299 152.40602449 -42.54207791 152.40855864 -41.0465126 152.40720749 C-38.67487024 152.40623846 -36.30367641 152.41922885 -33.93209839 152.43618774 C-27.19158384 152.48234474 -20.45111648 152.50705832 -13.71044922 152.51367188 C-9.58071139 152.51869977 -5.45144347 152.54301239 -1.32186508 152.57899857 C0.24649351 152.58876559 1.81491698 152.59114546 3.38329697 152.58582687 C5.58269878 152.57871805 7.78070991 152.59611361 9.97998047 152.61865234 C11.22842743 152.62150238 12.47687439 152.62435242 13.76315308 152.62728882 C18.91612082 153.36283079 22.73409408 155.35956187 26.2421875 159.3203125 C27.7619286 163.34315658 27.97093426 166.88829662 27.3046875 171.1328125 C24.87900059 176.17077762 22.38001845 178.00049363 17.3046875 180.1328125 C14.2673645 180.53153992 14.2673645 180.53153992 11.02392578 180.56518555 C9.19270676 180.59487679 9.19270676 180.59487679 7.32449341 180.62516785 C5.36949417 180.63475273 5.36949417 180.63475273 3.375 180.64453125 C2.01592399 180.66139305 0.65686343 180.6795453 -0.70217896 180.69892883 C-4.26293101 180.74627274 -7.8236204 180.77618241 -11.38458252 180.80236816 C-15.02474337 180.83225304 -18.66468862 180.87875592 -22.3046875 180.92382812 C-29.43477211 181.0096831 -36.56492339 181.07710708 -43.6953125 181.1328125 C-39.76349824 185.60541434 -39.76349824 185.60541434 -34.37593079 187.25065613 C-33.40665146 187.24810318 -32.43737213 187.24555023 -31.4387207 187.24291992 C-29.79109489 187.24378853 -29.79109489 187.24378853 -28.11018372 187.24467468 C-26.91753403 187.24256485 -25.72488434 187.24045502 -24.49609375 187.23828125 C-21.9824133 187.25173988 -19.46874084 187.26676349 -16.95507812 187.28320312 C-12.98287415 187.30602483 -9.0115675 187.32032428 -5.03930664 187.30786133 C-1.21174414 187.29904151 2.61402884 187.3279633 6.44140625 187.36328125 C7.62393478 187.35105026 8.80646332 187.33881927 10.02482605 187.32621765 C16.52239411 187.42150713 20.45916719 187.94106133 25.12800598 192.65205383 C27.85403994 196.08254743 27.69305316 199.34130602 27.65625 203.5859375 C27.08084531 207.75442479 25.39103287 209.32704398 22.3046875 212.1328125 C18.38887866 214.88982542 14.05034743 214.42096549 9.453125 214.3984375 C8.59788239 214.40035095 7.74263977 214.4022644 6.86148071 214.40423584 C5.05771591 214.40559452 3.25394123 214.40192026 1.45019531 214.39355469 C-1.31727898 214.38282426 -4.08410801 214.39347411 -6.8515625 214.40625 C-8.6041681 214.40492887 -10.3567733 214.40236742 -12.109375 214.3984375 C-12.9395816 214.40248596 -13.76978821 214.40653442 -14.62515259 214.41070557 C-20.46537615 214.36274885 -20.46537615 214.36274885 -22.6953125 212.1328125 C-22.9453125 209.6328125 -22.9453125 209.6328125 -22.6953125 207.1328125 C-19.72040145 204.15790145 -16.43323663 204.79610896 -12.44140625 204.75390625 C-11.62535416 204.73691177 -10.80930206 204.7199173 -9.96852112 204.70240784 C-7.35669723 204.64918178 -4.74489006 204.60893354 -2.1328125 204.5703125 C0.48275442 204.52644404 3.09819531 204.47979341 5.71360779 204.42750549 C7.34279456 204.39544975 8.97209301 204.36859078 10.60145569 204.34727478 C14.25454694 204.62169169 14.25454694 204.62169169 17.3046875 203.1328125 C17.34532582 201.46664135 17.3474085 199.79893155 17.3046875 198.1328125 C16.63784943 198.13138748 15.97101135 198.12996246 15.28396606 198.12849426 C8.30738847 198.10872018 1.33167674 198.05428109 -5.64453125 197.98022461 C-8.24375179 197.95710965 -10.84306512 197.94266428 -13.44238281 197.93725586 C-17.19133912 197.92791938 -20.93884874 197.88682117 -24.6875 197.83984375 C-25.83894501 197.8437764 -26.99039001 197.84770905 -28.17672729 197.85176086 C-35.63558146 197.71861214 -41.51678207 196.4903573 -47.6953125 192.1328125 C-52.35678595 187.21908169 -54.53167776 183.29641755 -54.8828125 176.5078125 C-54.6953125 173.1328125 -54.6953125 173.1328125 -52.6953125 171.1328125 C-49.84202576 170.86106873 -49.84202576 170.86106873 -46.15014648 170.82983398 C-45.47846436 170.82139465 -44.80678223 170.81295532 -44.11474609 170.80426025 C-41.8902925 170.77842899 -39.66597161 170.76633116 -37.44140625 170.75390625 C-35.89965249 170.73773911 -34.35790904 170.72055995 -32.81617737 170.70240784 C-28.75433096 170.65666549 -24.69247099 170.62188657 -20.63049316 170.59020996 C-14.12450618 170.53838083 -7.61867029 170.47335228 -1.11287117 170.40199471 C1.16558871 170.37908727 3.4440292 170.36286481 5.72254944 170.34727478 C7.11134048 170.33387323 8.5001295 170.32025888 9.88891602 170.30639648 C11.71520287 170.29212868 11.71520287 170.29212868 13.5783844 170.27757263 C16.21830769 170.44206539 16.21830769 170.44206539 17.3046875 169.1328125 C17.34532582 167.46664135 17.3474085 165.79893155 17.3046875 164.1328125 C16.42043091 164.12694626 15.53617432 164.12108002 14.62512207 164.11503601 C6.26866832 164.05699577 -2.08752137 163.98485437 -10.44371796 163.89709759 C-14.73915205 163.85247829 -19.03449314 163.81320388 -23.33007812 163.78637695 C-27.47997647 163.76025933 -31.6295153 163.719798 -35.77919006 163.66962624 C-37.35786955 163.65301447 -38.93661115 163.64146489 -40.5153656 163.63519859 C-49.74221642 163.59488903 -57.18996429 163.33359635 -65.3828125 158.5703125 C-69.59568804 154.12971396 -72.35842111 148.77981626 -73.1328125 142.6953125 C-72.6953125 140.1328125 -72.6953125 140.1328125 -70.6953125 137.1328125 C-67.89191939 136.82208638 -65.30523093 136.70582151 -62.49780273 136.71630859 C-61.22693314 136.70343056 -61.22693314 136.70343056 -59.9303894 136.69029236 C-57.12147829 136.6651367 -54.31291989 136.66084533 -51.50390625 136.65625 C-49.55858775 136.64194972 -47.61327943 136.62619448 -45.66798401 136.60903931 C-40.54080225 136.56709983 -35.41368364 136.542159 -30.28637695 136.52154541 C-22.07486098 136.48578651 -13.86350074 136.42490799 -5.65214729 136.36305618 C-2.77537707 136.34389302 0.10135155 136.33221457 2.97816467 136.32162476 C4.73096814 136.31141772 6.48377073 136.30106023 8.23657227 136.29052734 C9.44673759 136.28896385 9.44673759 136.28896385 10.68135071 136.28736877 C14.29104764 136.59842323 14.29104764 136.59842323 17.3046875 135.1328125 C17.47135417 132.6328125 17.47135417 132.6328125 17.3046875 130.1328125 C15.47255444 128.30067944 12.91096275 129.00225512 10.47193909 128.98936462 C9.63404343 128.98989334 8.79614777 128.99042206 7.93286133 128.9909668 C7.05477814 128.98749237 6.17669495 128.98401794 5.27200317 128.98043823 C3.35784862 128.97306619 1.44368543 128.96772857 -0.47047997 128.96414757 C-3.50092431 128.95700144 -6.5312049 128.94134774 -9.56159973 128.92280579 C-18.18044755 128.870257 -26.79920843 128.82237264 -35.41821289 128.80688477 C-40.68447303 128.7967994 -45.95032578 128.76745604 -51.21642494 128.72556496 C-53.22380808 128.71325324 -55.23124878 128.70813401 -57.23866844 128.71036339 C-60.05172472 128.71271801 -62.86361503 128.69053604 -65.67651367 128.6628418 C-66.50428818 128.66944321 -67.33206268 128.67604462 -68.18492126 128.68284607 C-73.47059007 128.59753778 -76.5122495 127.65125644 -80.6953125 124.1328125 C-83.81251831 119.45700378 -83.66752865 114.59162613 -82.6953125 109.1328125 C-80.30411109 105.79886589 -77.31736094 103.94383672 -73.6953125 102.1328125 C-70.85846804 102.01008639 -68.04459256 101.94706689 -65.20654297 101.92749023 C-64.32842957 101.91759064 -63.45031616 101.90769104 -62.54559326 101.89749146 C-59.63458988 101.86582976 -56.72357015 101.84110059 -53.8125 101.81640625 C-51.79753183 101.79584075 -49.78256801 101.77484439 -47.76760864 101.75343323 C-42.45757569 101.69817079 -37.14750353 101.64877993 -31.83740234 101.60058594 C-26.42151388 101.55040135 -21.00568253 101.49469942 -15.58984375 101.43945312 C-4.95838209 101.33182053 5.6731291 101.2303869 16.3046875 101.1328125 C16.68687517 99.47666593 17.01863852 97.80824226 17.3046875 96.1328125 C15.27069624 94.09882124 11.03114067 94.97870814 8.23657227 94.97509766 C7.39107819 94.97001694 6.54558411 94.96493622 5.67446899 94.95970154 C3.83233755 94.94897432 1.99019288 94.94036343 0.14804268 94.93358231 C-2.76368504 94.92183555 -5.67526157 94.90239471 -8.58692932 94.88046265 C-16.86755376 94.81869812 -25.14816344 94.76473703 -33.42895508 94.73144531 C-38.48766734 94.71055545 -43.54610568 94.67529812 -48.60466194 94.63068771 C-50.53719938 94.61648139 -52.46978529 94.6077949 -54.40237236 94.60463333 C-57.10114275 94.59975067 -59.7991801 94.57666222 -62.49780273 94.54931641 C-63.30255539 94.55232254 -64.10730804 94.55532867 -64.93644714 94.5584259 C-67.15867615 94.52481079 -67.15867615 94.52481079 -70.6953125 94.1328125 C-73.296201 90.23147975 -72.80074512 88.14258425 -72.23046875 83.6328125 C-70.8885089 77.363803 -66.58533296 73.80032785 -61.6953125 70.1328125 C-58.02583462 67.76196489 -54.75858233 67.85794791 -50.44824219 67.81396484 C-49.72589386 67.80391922 -49.00354553 67.7938736 -48.25930786 67.78352356 C-45.87860895 67.75270448 -43.49802244 67.73566019 -41.1171875 67.71875 C-39.46379632 67.7000373 -37.81041469 67.68046381 -36.15704346 67.6600647 C-31.81044133 67.60874816 -27.46380825 67.56911992 -23.11706543 67.53192139 C-18.67952824 67.49187873 -14.24211979 67.44078758 -9.8046875 67.390625 C-1.10165046 67.29387136 7.60145032 67.20946483 16.3046875 67.1328125 C16.68687517 65.47666593 17.01863852 63.80824226 17.3046875 62.1328125 C15.44827829 60.27640329 12.37091867 60.97861908 9.88891602 60.95922852 C9.21898621 60.9525415 8.5490564 60.94585449 7.85882568 60.93896484 C6.39975895 60.92488515 4.9406698 60.91300046 3.48156929 60.90301704 C1.17471818 60.8866558 -1.13196667 60.86342085 -3.43873596 60.83811951 C-9.99886851 60.76720511 -16.55906902 60.70716532 -23.11938477 60.65600586 C-27.12768378 60.62426495 -31.13579262 60.58300175 -35.14393806 60.53581047 C-36.67455699 60.51976009 -38.20521977 60.50745261 -39.73589897 60.49890327 C-41.87417857 60.48678817 -44.01200876 60.46265559 -46.15014648 60.43579102 C-47.36846664 60.42548355 -48.5867868 60.41517609 -49.84202576 60.40455627 C-52.6953125 60.1328125 -52.6953125 60.1328125 -54.6953125 58.1328125 C-55.3484741 51.81891703 -54.37159362 47.35075989 -50.6953125 42.1328125 C-46.24371313 37.26084418 -41.82455927 34.45763015 -35.07739258 33.92687988 C-31.82807547 33.82192266 -28.58295897 33.77775273 -25.33203125 33.75390625 C-23.55044365 33.72841454 -23.55044365 33.72841454 -21.73286438 33.70240784 C-17.94956733 33.64938266 -14.16628116 33.60900515 -10.3828125 33.5703125 C-6.58154486 33.52643235 -2.78036341 33.47982058 1.02079773 33.42750549 C3.38451149 33.3954594 5.74830202 33.36859746 8.11213684 33.34727478 C9.17381577 33.33378494 10.23549469 33.3202951 11.3293457 33.30639648 C12.26833206 33.29688461 13.20731842 33.28737274 14.17475891 33.27757263 C16.28825369 33.36842349 16.28825369 33.36842349 17.3046875 32.1328125 C17.34532582 30.46664135 17.3474085 28.79893155 17.3046875 27.1328125 C15.59369873 27.1030835 15.59369873 27.1030835 13.84814453 27.07275391 C9.62493427 26.99680683 5.40207351 26.90807322 1.17919922 26.81542969 C-0.65015779 26.77709473 -2.47959135 26.74224987 -4.30908203 26.7109375 C-6.93550009 26.66538445 -9.56138909 26.60737519 -12.1875 26.546875 C-13.00838104 26.53532379 -13.82926208 26.52377258 -14.67501831 26.51187134 C-20.46756909 26.36055591 -20.46756909 26.36055591 -22.6953125 24.1328125 C-23.89689809 18.77189219 -22.73203028 14.52360963 -20.0703125 9.8203125 C-14.9057067 1.95741383 -9.24255738 -0.0258025 0 0 Z " fill="#8951FA" transform="translate(215.6953125,78.8671875)"/>
<path d="M0 0 C16.17 0 32.34 0 49 0 C49 1.65 49 3.3 49 5 C49.495 5.495 49.495 5.495 50 6 C50.33 6 50.66 6 51 6 C51.09914961 11.58669908 51.17160105 17.17288186 51.21972656 22.76025391 C51.23979629 24.65943325 51.26705851 26.55855115 51.30175781 28.45751953 C51.35048109 31.19318839 51.37301507 33.92803771 51.390625 36.6640625 C51.41127014 37.50804596 51.43191528 38.35202942 51.45318604 39.22158813 C51.45522943 44.63488842 50.63355666 47.72360234 47 52 C40.91413786 55.99807333 34.13491188 55.49142137 27.0390625 55.44604492 C25.00418387 55.43751753 22.97210358 55.46637894 20.9375 55.49804688 C8.55764829 55.49190608 8.55764829 55.49190608 3 51 C0.33843017 48.0315843 -0.37260319 46.20279614 -0.34057617 42.23144531 C-0.34021362 41.2777002 -0.33985107 40.32395508 -0.33947754 39.34130859 C-0.32412964 38.34695801 -0.30878174 37.35260742 -0.29296875 36.328125 C-0.28994751 35.40821777 -0.28692627 34.48831055 -0.28381348 33.54052734 C-0.26813909 30.11023714 -0.22625504 26.68010709 -0.1875 23.25 C-0.125625 15.5775 -0.06375 7.905 0 0 Z " fill="#243563" transform="translate(87,312)"/>
<path d="M0 0 C5.23724692 2.96387807 8.8638854 7.84165621 10.75 13.5 C11.31246237 20.02456348 10.28968502 24.92293813 6.75 30.5 C3.03552071 34.53527523 -0.30547811 37.23740375 -5.921875 37.73828125 C-12.69033907 37.90148026 -16.842611 37.69348535 -22.25 33.5 C-26.96408754 28.78591246 -28.4230737 24.93723596 -28.625 18.3125 C-28.56954262 12.08740873 -27.55776524 8.05456429 -23.25 3.5 C-16.34137889 -1.88872447 -8.24669806 -3.6069373 0 0 Z " fill="#F6F7F7" transform="translate(361.25,398.5)"/>
<path d="M0 0 C22.71665641 -0.85723232 22.71665641 -0.85723232 28.46875 4.1640625 C32.44876058 8.93601396 34.76160555 13.50764604 34.3828125 19.921875 C33.37908849 25.37066249 31.26708661 30.24354794 27.0625 33.9375 C17.72543629 40.22572658 13.31656686 38 0 38 C0 25.46 0 12.92 0 0 Z " fill="#F6F7F8" transform="translate(56,398)"/>
<path d="M0 0 C2.64 0 5.28 0 8 0 C8.14099121 0.53890869 8.28198242 1.07781738 8.42724609 1.63305664 C9.07569489 4.10974866 9.7253395 6.58612556 10.375 9.0625 C10.59671875 9.91005859 10.8184375 10.75761719 11.046875 11.63085938 C11.26601563 12.46552734 11.48515625 13.30019531 11.7109375 14.16015625 C12.00943604 15.29916382 12.00943604 15.29916382 12.31396484 16.46118164 C13.17566116 19.65007131 14.09252422 22.82383477 15 26 C17.31 17.42 19.62 8.84 22 0 C24.97 0 27.94 0 31 0 C31.9802559 3.41635512 32.95901446 6.83313745 33.9375 10.25 C34.35418945 11.70212891 34.35418945 11.70212891 34.77929688 13.18359375 C35.04677734 14.11816406 35.31425781 15.05273438 35.58984375 16.015625 C35.95903931 17.30388184 35.95903931 17.30388184 36.33569336 18.61816406 C36.92695187 20.73808984 37.47848343 22.86199846 38 25 C39.52818931 22.18934433 40.41540406 19.65764128 41.03515625 16.5234375 C41.28942383 15.27046875 41.28942383 15.27046875 41.54882812 13.9921875 C41.8030957 12.69667969 41.8030957 12.69667969 42.0625 11.375 C42.40508634 9.6531534 42.75002619 7.93177289 43.09765625 6.2109375 C43.24726807 5.45087402 43.39687988 4.69081055 43.55102539 3.90771484 C44 2 44 2 45 0 C47.64 0 50.28 0 53 0 C51.62235944 7.35315649 49.90147435 14.57842554 48 21.8125 C47.73960937 22.82248047 47.47921875 23.83246094 47.2109375 24.87304688 C46.82808594 26.33774414 46.82808594 26.33774414 46.4375 27.83203125 C46.20933594 28.70577393 45.98117187 29.5795166 45.74609375 30.47973633 C44.98121692 33.06344822 44.03885428 35.51516533 43 38 C39.7 38 36.4 38 33 38 C32.61908203 36.28103516 32.61908203 36.28103516 32.23046875 34.52734375 C31.88316194 32.99731647 31.53548599 31.46737295 31.1875 29.9375 C31.02185547 29.18533203 30.85621094 28.43316406 30.68554688 27.65820312 C29.57560546 22.82053394 28.08788622 18.50480895 26 14 C25.823479 14.65597168 25.64695801 15.31194336 25.46508789 15.98779297 C24.66642752 18.95079406 23.8645053 21.91290262 23.0625 24.875 C22.78470703 25.90753906 22.50691406 26.94007813 22.22070312 28.00390625 C21.95322266 28.99003906 21.68574219 29.97617187 21.41015625 30.9921875 C21.16402588 31.90339355 20.91789551 32.81459961 20.66430664 33.75341797 C20 36 20 36 19 38 C16.03 38 13.06 38 10 38 C7.86331367 31.73751995 6.15480057 25.38764995 4.4375 19 C4.12103516 17.83726562 3.80457031 16.67453125 3.47851562 15.4765625 C3.17494141 14.34992188 2.87136719 13.22328125 2.55859375 12.0625 C2.14565063 10.53302734 2.14565063 10.53302734 1.72436523 8.97265625 C0.99866879 5.99453699 0.4652048 3.02876815 0 0 Z " fill="#F7F8F8" transform="translate(274,398)"/>
<path d="M0 0 C3.196875 -0.061875 6.39375 -0.12375 9.6875 -0.1875 C11.18543091 -0.22846802 11.18543091 -0.22846802 12.71362305 -0.27026367 C17.64022382 -0.31642729 21.03086436 -0.25575371 25 3 C25.58910156 3.45632813 26.17820312 3.91265625 26.78515625 4.3828125 C28.91457467 7.21747239 28.46024292 10.13314745 28.35546875 13.55078125 C27.85202559 17.01955992 26.63381959 18.73198869 24 21 C21.859375 21.62109375 21.859375 21.62109375 20 22 C20.6496875 23.07121094 21.299375 24.14242188 21.96875 25.24609375 C22.81261525 26.64315956 23.656359 28.04029876 24.5 29.4375 C24.92925781 30.14455078 25.35851562 30.85160156 25.80078125 31.58007812 C29 36.88671875 29 36.88671875 29 38 C25.71664015 38.88924329 23.24949597 39.09651713 20 38 C16.76237408 34.15631603 12 28.1976958 12 23 C10.68 23 9.36 23 8 23 C8 27.95 8 32.9 8 38 C5.36 38 2.72 38 0 38 C0 25.46 0 12.92 0 0 Z " fill="#F7F8F8" transform="translate(379,398)"/>
<path d="M0 0 C8 0 8 0 9.73095703 1.23413086 C10.06981934 1.80526611 10.40868164 2.37640137 10.7578125 2.96484375 C11.15613281 3.60099609 11.55445313 4.23714844 11.96484375 4.89257812 C12.34769531 5.56740234 12.73054687 6.24222656 13.125 6.9375 C13.91894983 8.2384772 14.71322464 9.53925613 15.5078125 10.83984375 C16.33023438 12.21269531 17.15265625 13.58554687 18 15 C19.98 17.97 21.96 20.94 24 24 C24.33 16.08 24.66 8.16 25 0 C27.64 0 30.28 0 33 0 C33 12.87 33 25.74 33 39 C25 39 25 39 22.83837891 37.11987305 C22.30647949 36.25918213 21.77458008 35.39849121 21.2265625 34.51171875 C20.62972656 33.57779297 20.03289062 32.64386719 19.41796875 31.68164062 C18.82628906 30.69357422 18.23460937 29.70550781 17.625 28.6875 C17.01011719 27.71103516 16.39523438 26.73457031 15.76171875 25.72851562 C14.62341007 23.9164378 13.4966359 22.0970267 12.38525391 20.26831055 C11.29731587 18.48684556 10.15787958 16.73681937 9 15 C8.67 22.92 8.34 30.84 8 39 C5.36 39 2.72 39 0 39 C0 26.13 0 13.26 0 0 Z " fill="#F3F5F5" transform="translate(169,397)"/>
<path d="M0 0 C1.32 1.32 2.64 2.64 4 4 C4.66 3.01 5.32 2.02 6 1 C6.33 2.98 6.66 4.96 7 7 C7.66 6.34 8.32 5.68 9 5 C9.33 5.99 9.66 6.98 10 8 C10.99 7.67 11.98 7.34 13 7 C9.97545334 19.24834144 9.97545334 19.24834144 7 23 C6.34 23 5.68 23 5 23 C4.24921041 29.76536582 4.24921041 29.76536582 4 36.5625 C4 37.366875 4 38.17125 4 39 C3 40 3 40 -0.16015625 40.09765625 C-1.44792969 40.08605469 -2.73570313 40.07445312 -4.0625 40.0625 C-5.35285156 40.05347656 -6.64320312 40.04445313 -7.97265625 40.03515625 C-8.97167969 40.02355469 -9.97070312 40.01195312 -11 40 C-11 38.68 -11 37.36 -11 36 C-11.99 35.67 -12.98 35.34 -14 35 C-14 36.65 -14 38.3 -14 40 C-15.98 40 -17.96 40 -20 40 C-19.34 38.68 -18.68 37.36 -18 36 C-17.34 36 -16.68 36 -16 36 C-16.05220703 35.02160156 -16.05220703 35.02160156 -16.10546875 34.0234375 C-16.27610432 28.51434628 -16.0363889 24.80761576 -13 20 C-13.99 20 -14.98 20 -16 20 C-15.34 18.35 -14.68 16.7 -14 15 C-8.50581395 14.63372093 -8.50581395 14.63372093 -6.1875 16.3125 C-5 18 -5 18 -4 21 C-3.51238547 15.61456845 -3.20920745 11.38941118 -6.5 6.875 C-7.7375 5.451875 -7.7375 5.451875 -9 4 C-7.35 4.33 -5.7 4.66 -4 5 C-3.67 4.01 -3.34 3.02 -3 2 C-2.01 2.66 -1.02 3.32 0 4 C0 2.68 0 1.36 0 0 Z " fill="#E3C735" transform="translate(121,321)"/>
<path d="M0 0 C2.73577487 2.71769707 4.83592536 5.81931355 7 9 C7.97732998 10.35549284 8.95626226 11.70983329 9.9375 13.0625 C10.618125 14.031875 11.29875 15.00125 12 16 C11.97679687 15.01257813 11.95359375 14.02515625 11.9296875 13.0078125 C11.91164062 11.72648437 11.89359375 10.44515625 11.875 9.125 C11.85179687 7.84882813 11.82859375 6.57265625 11.8046875 5.2578125 C12 2 12 2 14 0 C15.98 0 17.96 0 20 0 C20 10.56 20 21.12 20 32 C12 32 12 32 10.125 30.3203125 C9.568125 29.23363281 9.568125 29.23363281 9 28.125 C8.608125 27.40570313 8.21625 26.68640625 7.8125 25.9453125 C7 24 7 24 7 22 C6.01 21.67 5.02 21.34 4 21 C2.68 19.68 1.36 18.36 0 17 C0 21.95 0 26.9 0 32 C-2.64 32 -5.28 32 -8 32 C-8 21.77 -8 11.54 -8 1 C-4.91265763 -0.54367118 -3.44376769 -0.64976749 0 0 Z " fill="#010304" transform="translate(238,321)"/>
<path d="M0 0 C2.64 0 5.28 0 8 0 C8.33 4.95 8.66 9.9 9 15 C9.76183594 13.9171875 10.52367187 12.834375 11.30859375 11.71875 C12.35004866 10.3113785 13.39310257 8.90518927 14.4375 7.5 C14.93443359 6.78457031 15.43136719 6.06914062 15.94335938 5.33203125 C19.80511889 0.23159416 19.80511889 0.23159416 23.41845703 -0.46875 C25.6630001 -0.46875 27.78257223 -0.33639865 30 0 C28.73509454 2.7361299 27.39787506 4.87432363 25.36328125 7.09375 C24.86892578 7.64933594 24.37457031 8.20492188 23.86523438 8.77734375 C22.82480875 9.93162728 21.7778362 11.08004117 20.72460938 12.22265625 C19.03648407 14.08009367 19.03648407 14.08009367 17 17 C17.31068354 20.20829117 18.56984814 21.9913517 20.6875 24.34765625 C21.22117187 24.95287109 21.75484375 25.55808594 22.3046875 26.18164062 C23.14386719 27.11266602 23.14386719 27.11266602 24 28.0625 C25.10826717 29.29972452 26.21261226 30.54047653 27.3125 31.78515625 C27.80363281 32.33051025 28.29476563 32.87586426 28.80078125 33.43774414 C30 35 30 35 31 38 C27.45648643 38.56246247 25.41599797 38.85141943 22 38 C18.47778993 35.06482494 15.77409007 31.63336844 13 28 C11.68 26.35 10.36 24.7 9 23 C8.67 27.95 8.34 32.9 8 38 C5.36 38 2.72 38 0 38 C0 25.46 0 12.92 0 0 Z " fill="#F6F7F8" transform="translate(416,398)"/>
<path d="M0 0 C9 0 9 0 11.3046875 2.265625 C11.82289063 3.25046875 12.34109375 4.2353125 12.875 5.25 C13.67550781 6.71179688 13.67550781 6.71179688 14.4921875 8.203125 C15.23855469 9.58757812 15.23855469 9.58757812 16 11 C16.99 12.32 17.98 13.64 19 15 C19.33 10.05 19.66 5.1 20 0 C22.64 0 25.28 0 28 0 C28 10.23 28 20.46 28 31 C19 31 19 31 16.80859375 28.8828125 C16.35613281 27.97273438 15.90367187 27.06265625 15.4375 26.125 C14.96183594 25.22007812 14.48617187 24.31515625 13.99609375 23.3828125 C13 21 13 21 13 19 C12.01 18.67 11.02 18.34 10 18 C10 16.68 10 15.36 10 14 C9.34 14 8.68 14 8 14 C7.67 19.61 7.34 25.22 7 31 C4.69 31 2.38 31 0 31 C0 20.77 0 10.54 0 0 Z " fill="#010506" transform="translate(184,322)"/>
<path d="M0 0 C14.85 0 29.7 0 45 0 C45 3.63 45 7.26 45 11 C43.35 11.33 41.7 11.66 40 12 C39.505 11.01 39.505 11.01 39 10 C38.34 10.33 37.68 10.66 37 11 C36.505 9.02 36.505 9.02 36 7 C35.34 7.33 34.68 7.66 34 8 C33.34 6.68 32.68 5.36 32 4 C31.67 4.99 31.34 5.98 31 7 C30.01 6.67 29.02 6.34 28 6 C27.67 6.66 27.34 7.32 27 8 C25.68 8 24.36 8 23 8 C24.2375 9.175625 24.2375 9.175625 25.5 10.375 C28.64132688 14.05610418 28.41677566 17.35503149 28.17578125 22.0234375 C28.11777344 22.67570312 28.05976562 23.32796875 28 24 C27.34 24.33 26.68 24.66 26 25 C25.67 23.02 25.34 21.04 25 19 C22.36 19 19.72 19 17 19 C16.34 20.32 15.68 21.64 15 23 C15.99 23 16.98 23 18 23 C17.67 23.66 17.34 24.32 17 25 C16.01 24.67 15.02 24.34 14 24 C14 23.01 14 22.02 14 21 C13.236875 20.896875 12.47375 20.79375 11.6875 20.6875 C8.79395144 19.9472899 7.83208565 19.29010706 6 17 C5.67 16.34 5.34 15.68 5 15 C3.35 14.67 1.7 14.34 0 14 C0 9.38 0 4.76 0 0 Z " fill="#2D3C64" transform="translate(90,318)"/>
<path d="M0 0 C7.59 0 15.18 0 23 0 C23 2.31 23 4.62 23 7 C18.05 7 13.1 7 8 7 C8 9.97 8 12.94 8 16 C12.29 16 16.58 16 21 16 C21 18.31 21 20.62 21 23 C16.71 23 12.42 23 8 23 C8 26.3 8 29.6 8 33 C12.62 33 17.24 33 22 33 C22 34.98 22 36.96 22 39 C14.74 39 7.48 39 0 39 C0 26.13 0 13.26 0 0 Z " fill="#EEF0F1" transform="translate(97,397)"/>
<path d="M0 0 C2.64 0 5.28 0 8 0 C9.50776616 4.10135565 11.00487576 8.20652067 12.5 12.3125 C12.92925781 13.47974609 13.35851562 14.64699219 13.80078125 15.84960938 C14.20683594 16.96787109 14.61289063 18.08613281 15.03125 19.23828125 C15.40830078 20.26993408 15.78535156 21.30158691 16.17382812 22.36450195 C17 25 17 25 17 28 C17.66 28 18.32 28 19 28 C19.14695313 27.40316406 19.29390625 26.80632812 19.4453125 26.19140625 C21.7530684 17.26543084 24.86299049 8.65977059 28 0 C30.64 0 33.28 0 36 0 C35.27638157 4.42794492 33.82701658 8.51536684 32.27734375 12.70703125 C32.01240616 13.43242599 31.74746857 14.15782074 31.47450256 14.90519714 C30.63223577 17.20889344 29.78494734 19.51070506 28.9375 21.8125 C28.36359921 23.37943534 27.79002787 24.94649138 27.21679688 26.51367188 C25.81500906 30.34385618 24.4087164 34.17235885 23 38 C19.7 38 16.4 38 13 38 C11.14234222 33.07272236 9.29110552 28.14309893 7.44580078 23.21118164 C6.8170316 21.5334359 6.18650698 19.85634697 5.55419922 18.17993164 C4.64609833 15.77139719 3.74431853 13.36057805 2.84375 10.94921875 C2.55939087 10.19912033 2.27503174 9.44902191 1.98205566 8.67619324 C0.85778022 5.65027662 0 3.25571279 0 0 Z " fill="#F7F8F8" transform="translate(126,398)"/>
<path d="M0 0 C3.5625 0.1875 3.5625 0.1875 5.5625 2.1875 C5.6875 4.8125 5.6875 4.8125 5.5625 7.1875 C6.2225 7.1875 6.8825 7.1875 7.5625 7.1875 C10.95454534 15.42061977 14.25110831 23.57046958 16.5625 32.1875 C14.2525 32.1875 11.9425 32.1875 9.5625 32.1875 C9.2325 30.8675 8.9025 29.5475 8.5625 28.1875 C3.2825 28.1875 -1.9975 28.1875 -7.4375 28.1875 C-7.7675 29.5075 -8.0975 30.8275 -8.4375 32.1875 C-11.0775 32.1875 -13.7175 32.1875 -16.4375 32.1875 C-15.82759109 28.62969804 -14.8591319 25.5046411 -13.4375 22.1875 C-12.7775 22.1875 -12.1175 22.1875 -11.4375 22.1875 C-11.26734375 21.50945312 -11.0971875 20.83140625 -10.921875 20.1328125 C-5.76136451 0.31425625 -5.76136451 0.31425625 0 0 Z " fill="#010506" transform="translate(277.4375,320.8125)"/>
<path d="M0 0 C2.97 0 5.94 0 9 0 C9.350625 1.36125 9.70125 2.7225 10.0625 4.125 C11.79964647 9.99622099 14.51924778 15.22439099 17.37890625 20.60546875 C19.04143091 24.08675533 20.04892831 27.27615214 21 31 C18.36 31 15.72 31 13 31 C12.67 29.68 12.34 28.36 12 27 C7.05 27 2.1 27 -3 27 C-3.66 28.32 -4.32 29.64 -5 31 C-7.31 31 -9.62 31 -12 31 C-11.37321829 27.33827525 -10.35548154 24.1181005 -8.9375 20.6875 C-8.57527344 19.80449219 -8.21304687 18.92148437 -7.83984375 18.01171875 C-7.56269531 17.34785156 -7.28554688 16.68398438 -7 16 C-6.34 16 -5.68 16 -5 16 C-4.80664062 15.26394531 -4.61328125 14.52789062 -4.4140625 13.76953125 C-4.15367187 12.79371094 -3.89328125 11.81789063 -3.625 10.8125 C-3.24214844 9.36810547 -3.24214844 9.36810547 -2.8515625 7.89453125 C-2.05233704 5.17789793 -1.0968638 2.60862825 0 0 Z " fill="#010406" transform="translate(364,322)"/>
<path d="M0 0 C3.625 1.5 3.625 1.5 6 3 C6 4.32 6 5.64 6 7 C5.34 7 4.68 7 4 7 C4 7.66 4 8.32 4 9 C3.505 8.835 3.01 8.67 2.5 8.5 C-1.03444089 7.79311182 -4.39690701 7.93994845 -8 8 C-8.33 8.99 -8.66 9.98 -9 11 C-7.98679687 11.18175781 -7.98679687 11.18175781 -6.953125 11.3671875 C-6.06109375 11.53476562 -5.1690625 11.70234375 -4.25 11.875 C-2.92742187 12.11863281 -2.92742187 12.11863281 -1.578125 12.3671875 C1.79221722 13.19445332 4.20510542 14.2618836 6.75 16.625 C8.5633717 20.07040623 8.98246848 23.20268134 8 27 C2.37604646 31.87409307 -2.86605309 32.50704085 -10 32 C-12.42882436 31.49122987 -14.64422434 30.80196618 -17 30 C-17.93065133 27.39417629 -18.14917407 26.35801776 -17.0625 23.75 C-16.711875 23.1725 -16.36125 22.595 -16 22 C-15.21625 22.33 -14.4325 22.66 -13.625 23 C-9.00638131 24.27410171 -4.75750644 24.16923936 0 24 C-2.86434595 19.70348107 -6.32581717 19.51486784 -11.15234375 18.16015625 C-14.30599843 16.87533397 -15.370887 15.94897065 -17 13 C-17.5 9.5625 -17.5 9.5625 -17 6 C-11.86696114 -0.21367862 -7.72499584 -0.70871521 0 0 Z " fill="#020507" transform="translate(314,321)"/>
<path d="M0 0 C7.26 0 14.52 0 22 0 C22 1.98 22 3.96 22 6 C17.05 6 12.1 6 7 6 C7 8.97 7 11.94 7 15 C11.29 15 15.58 15 20 15 C20 16.98 20 18.96 20 21 C15.71 21 11.42 21 7 21 C7 24.63 7 28.26 7 32 C11.95 32 16.9 32 22 32 C22 33.98 22 35.96 22 38 C14.74 38 7.48 38 0 38 C0 25.46 0 12.92 0 0 Z " fill="#FAFAFB" transform="translate(212,398)"/>
<path d="M0 0 C2.33294775 -0.04241723 4.66702567 -0.04092937 7 0 C8.60306981 1.60306981 8.20270624 3.36791197 8.28125 5.5859375 C8.31863281 6.51664062 8.35601562 7.44734375 8.39453125 8.40625 C8.42933594 9.3859375 8.46414062 10.365625 8.5 11.375 C8.56891899 13.29962648 8.64167101 15.22412055 8.71875 17.1484375 C8.74904297 18.00614746 8.77933594 18.86385742 8.81054688 19.74755859 C8.92504068 22.16779201 8.92504068 22.16779201 10 25 C11.98 25 13.96 25 16 25 C16 24.34 16 23.68 16 23 C16.66 23 17.32 23 18 23 C18.33 15.41 18.66 7.82 19 0 C21.64 0 24.28 0 27 0 C27.20416594 3.87421701 27.32791537 7.74704592 27.4375 11.625 C27.49615234 12.71941406 27.55480469 13.81382812 27.61523438 14.94140625 C27.78410413 22.90240903 27.78410413 22.90240903 25.51611328 26.07714844 C21.03233833 30.02419158 17.11480167 31.31497374 11.0625 31.21484375 C7.83306643 30.87844442 5.67339529 29.80298752 3 28 C0.37421797 24.38950114 -0.36733583 21.91770475 -0.29296875 17.48046875 C-0.28330078 16.45888672 -0.27363281 15.43730469 -0.26367188 14.38476562 C-0.23853516 13.32966797 -0.21339844 12.27457031 -0.1875 11.1875 C-0.17396484 10.11306641 -0.16042969 9.03863281 -0.14648438 7.93164062 C-0.11122577 5.28724545 -0.06194366 2.64388252 0 0 Z " fill="#020607" transform="translate(152,322)"/>
<path d="M0 0 C3.6875 1.5 3.6875 1.5 6 3 C5.49396008 5.16874252 5.00016187 6.99967627 4 9 C-0.29 8.67 -4.58 8.34 -9 8 C-9.33 8.99 -9.66 9.98 -10 11 C-9.24074219 11.10957031 -8.48148437 11.21914063 -7.69921875 11.33203125 C-6.70535156 11.49058594 -5.71148437 11.64914062 -4.6875 11.8125 C-3.70136719 11.96332031 -2.71523438 12.11414063 -1.69921875 12.26953125 C1.17188541 13.04651602 2.13538625 13.7624635 4 16 C4.556875 16.391875 5.11375 16.78375 5.6875 17.1875 C7.49918278 19.68934765 7.52986831 22.03481343 7.4296875 25.0625 C7 27 7 27 4.625 29.4375 C-0.36990048 32.41065505 -4.24165575 32.37093629 -10 32 C-12.90896358 31.22081333 -15.32439639 30.3378018 -18 29 C-18 27.68 -18 26.36 -18 25 C-17.34 25 -16.68 25 -16 25 C-16 24.34 -16 23.68 -16 23 C-8.575 23.99 -8.575 23.99 -1 25 C-1.33 23.68 -1.66 22.36 -2 21 C-4.18538275 20.00072004 -4.18538275 20.00072004 -6.8125 19.5 C-10.9238717 18.42516997 -13.3834019 17.52671918 -16 14 C-17.58939347 10.82121306 -17.41576711 8.5043228 -17 5 C-12.36631696 -0.8860298 -7.15886198 -1.01814926 0 0 Z " fill="#020507" transform="translate(343,321)"/>
<path d="M0 0 C3.87765844 1.34226638 5.55557782 2.34818081 7.875 5.75 C9.60003554 10.73343599 9.64777014 14.31579764 7.75 19.25 C5.97466105 22.03981835 4.78122295 23.28581818 2 25 C-2.77153538 25.86120395 -6.79427124 25.70334178 -11 23.25 C-14.54946495 19.25685193 -15.46354146 16.52119748 -15.3203125 11.02734375 C-14.65524071 6.81792593 -12.05336725 4.08969026 -9.1875 1.125 C-5.95746393 -0.53616141 -3.58570502 -0.370935 0 0 Z " fill="#1C3946" transform="translate(355,404)"/>
<path d="M0 0 C1.99954746 -0.04254356 4.00041636 -0.04080783 6 0 C7.53108061 1.53108061 7.17943942 2.98146485 7.24609375 5.11328125 C7.27896484 5.94923828 7.31183594 6.78519531 7.34570312 7.64648438 C7.40649351 9.41199238 7.46383262 11.17762287 7.51757812 12.94335938 C7.55173828 13.78318359 7.58589844 14.62300781 7.62109375 15.48828125 C7.6461499 16.25696533 7.67120605 17.02564941 7.69702148 17.81762695 C8.03113992 20.22430274 8.80598179 21.89889819 10 24 C12.91652174 24.16681109 12.91652174 24.16681109 16 24 C18.52128356 21.47871644 18.29353069 20.48760987 18.4140625 16.9921875 C18.45273437 16.00605469 18.49140625 15.01992188 18.53125 14.00390625 C18.5621875 12.97136719 18.593125 11.93882812 18.625 10.875 C18.66367187 9.83472656 18.70234375 8.79445313 18.7421875 7.72265625 C18.83664766 5.14861689 18.92221214 2.57458845 19 0 C21.31 0 23.62 0 26 0 C26.11674705 3.70806596 26.18743274 7.4156554 26.25 11.125 C26.28351563 12.17171875 26.31703125 13.2184375 26.3515625 14.296875 C26.43043321 20.52766127 26.25349971 24.30000033 22 29 C17.8086514 31.63456197 12.80788103 31.6940955 8 31 C3.92550467 28.92571147 1.64765138 27.25084614 0 23 C-0.22705078 20.43457031 -0.22705078 20.43457031 -0.1953125 17.578125 C-0.18564453 16.04091797 -0.18564453 16.04091797 -0.17578125 14.47265625 C-0.15902344 13.40917969 -0.14226562 12.34570312 -0.125 11.25 C-0.11597656 10.17105469 -0.10695313 9.09210938 -0.09765625 7.98046875 C-0.07411305 5.32008722 -0.04122799 2.66015664 0 0 Z " fill="#010304" transform="translate(387,322)"/>
<path d="M0 0 C9.57 0 19.14 0 29 0 C29 1.98 29 3.96 29 6 C25.37 6 21.74 6 18 6 C18 16.56 18 27.12 18 38 C15.69 38 13.38 38 11 38 C11 27.44 11 16.88 11 6 C7.37 6 3.74 6 0 6 C0 4.02 0 2.04 0 0 Z " fill="#FAFAFB" transform="translate(240,398)"/>
<path d="M0 0 C10.45945946 0 10.45945946 0 15 4 C17.38713778 6.9441366 17.96192889 8.65101478 18.375 12.4375 C17.96263339 16.35498276 17.1083962 18.68680597 15 22 C11 25 11 25 0 25 C0 16.75 0 8.5 0 0 Z " fill="#1C3B4A" transform="translate(64,404)"/>
<path d="M0 0 C2.06091892 -0.00218884 4.12130456 -0.0203571 6.18212891 -0.03930664 C7.47505859 -0.04124023 8.76798828 -0.04317383 10.10009766 -0.04516602 C11.29183594 -0.0492749 12.48357422 -0.05338379 13.71142578 -0.05761719 C16.56884766 0.18530273 16.56884766 0.18530273 18.56884766 2.18530273 C18.88134766 4.68530273 18.88134766 4.68530273 18.56884766 7.18530273 C14.95066062 9.59742742 13.26792854 9.43058526 8.96728516 9.41577148 C7.67306641 9.41383789 6.37884766 9.4119043 5.04541016 9.40991211 C4.3728418 9.4037085 3.70027344 9.39750488 3.00732422 9.39111328 C0.94437375 9.3728074 -1.11812897 9.37060401 -3.18115234 9.37084961 C-13.29100902 9.32544606 -13.29100902 9.32544606 -14.43115234 8.18530273 C-14.47208172 5.8523284 -14.47356958 3.51825049 -14.43115234 1.18530273 C-10.20200391 -0.92927148 -4.65215428 -0.00055555 0 0 Z " fill="#8A51FB" transform="translate(288.43115234375,283.814697265625)"/>
<path d="M0 0 C1.3096875 -0.01224609 2.619375 -0.02449219 3.96875 -0.03710938 C5.84046875 -0.04000977 5.84046875 -0.04000977 7.75 -0.04296875 C8.89984375 -0.04707764 10.0496875 -0.05118652 11.234375 -0.05541992 C14 0.1875 14 0.1875 16 2.1875 C16.25 4.6875 16.25 4.6875 16 7.1875 C12.69318663 10.49431337 8.51577192 9.48411496 4.01757812 9.50976562 C2.71240234 9.50654297 1.40722656 9.50332031 0.0625 9.5 C-1.88946289 9.52416992 -1.88946289 9.52416992 -3.88085938 9.54882812 C-5.74774414 9.54979492 -5.74774414 9.54979492 -7.65234375 9.55078125 C-8.79695068 9.55376221 -9.94155762 9.55674316 -11.12084961 9.55981445 C-14 9.1875 -14 9.1875 -15.90844727 7.82885742 C-17 6.1875 -17 6.1875 -16.8125 3.5625 C-14.81215818 -2.284653 -5.11102264 0.00251527 0 0 Z " fill="#8750F8" transform="translate(293,146.8125)"/>
<path d="M0 0 C1.79715454 0.00616333 1.79715454 0.00616333 3.63061523 0.01245117 C4.92805664 0.01438477 6.22549805 0.01631836 7.56225586 0.01831055 C8.23893311 0.02451416 8.91561035 0.03071777 9.61279297 0.03710938 C11.68461369 0.0553794 13.75598795 0.05761897 15.82788086 0.05737305 C25.98662641 0.10283735 25.98662641 0.10283735 27.12670898 1.24291992 C27.31420898 4.18041992 27.31420898 4.18041992 27.12670898 7.24291992 C24.36726293 10.00236597 22.734342 9.5009767 18.87670898 9.50854492 C17.00499023 9.51241211 17.00499023 9.51241211 15.09545898 9.51635742 C13.13092773 9.50475586 13.13092773 9.50475586 11.12670898 9.49291992 C9.81702148 9.5006543 8.50733398 9.50838867 7.15795898 9.51635742 C5.91014648 9.5137793 4.66233398 9.51120117 3.37670898 9.50854492 C1.65194336 9.50516113 1.65194336 9.50516113 -0.10766602 9.50170898 C-2.87329102 9.24291992 -2.87329102 9.24291992 -4.87329102 7.24291992 C-5.12329102 4.74291992 -5.12329102 4.74291992 -4.87329102 2.24291992 C-2.87329102 0.24291992 -2.87329102 0.24291992 0 0 Z " fill="#8750F7" transform="translate(323.873291015625,146.757080078125)"/>
<path d="M0 0 C4.80192246 0.16615649 7.40268776 2.63689247 10.875 5.75 C11.86242187 6.61109375 12.84984375 7.4721875 13.8671875 8.359375 C16 11 16 11 16.14453125 13.5234375 C14.60775392 16.8487509 12.63483311 18.55162187 9.8125 20.875 C8.87019531 21.67679687 7.92789062 22.47859375 6.95703125 23.3046875 C4 25 4 25 0.63671875 24.7578125 C-0.23339844 24.50773437 -1.10351562 24.25765625 -2 24 C-2.68359375 22.265625 -2.68359375 22.265625 -3 20 C-1.78515625 17.859375 -1.78515625 17.859375 -0.0625 15.75 C0.50339844 15.04359375 1.06929688 14.3371875 1.65234375 13.609375 C2.09707031 13.07828125 2.54179687 12.5471875 3 12 C1.7625 11.195625 1.7625 11.195625 0.5 10.375 C-2 8 -2 8 -2.4375 4.875 C-2 2 -2 2 0 0 Z " fill="#8850FA" transform="translate(331,241)"/>
<path d="M0 0 C1 1 1 1 1.375 3.25 C0.85065737 7.09517927 -1.21875095 8.42734463 -4 11 C-4 11.66 -4 12.32 -4 13 C-2.7625 13.8971875 -2.7625 13.8971875 -1.5 14.8125 C1 17 1 17 1.4375 19.625 C1 22 1 22 -1 24 C-5.6032293 23.77739133 -8.31015924 21.58187928 -11.8125 18.75 C-12.78832031 17.98171875 -13.76414062 17.2134375 -14.76953125 16.421875 C-17 14 -17 14 -17.64453125 11.50390625 C-16.70538752 7.85547515 -14.78169653 6.52448401 -11.875 4.1875 C-10.44800781 3.00220703 -10.44800781 3.00220703 -8.9921875 1.79296875 C-5.63706854 -0.2174746 -3.841419 -0.46208373 0 0 Z " fill="#8850F9" transform="translate(274,242)"/>
<path d="M0 0 C0.68429077 -0.00095673 1.36858154 -0.00191345 2.0736084 -0.00289917 C3.52286877 -0.0035808 4.97213218 -0.00172773 6.42138672 0.00244141 C8.64687928 0.00778998 10.87217001 0.0024959 13.09765625 -0.00390625 C14.50260461 -0.00324547 15.90755285 -0.0019643 17.3125 0 C18.59962891 0.00112793 19.88675781 0.00225586 21.21289062 0.00341797 C24.15625 0.1328125 24.15625 0.1328125 25.15625 1.1328125 C25.28125 4.1328125 25.28125 4.1328125 25.15625 7.1328125 C22.68137289 9.60768961 16.6154388 8.30618482 13.14648438 8.31835938 C12.42033936 8.31827881 11.69419434 8.31819824 10.94604492 8.31811523 C8.73141218 8.32030001 6.51727877 8.33844781 4.30273438 8.35742188 C2.90104338 8.36035606 1.49935 8.36234069 0.09765625 8.36328125 C-1.18423584 8.36739014 -2.46612793 8.37149902 -3.78686523 8.37573242 C-6.84375 8.1328125 -6.84375 8.1328125 -8.84375 6.1328125 C-8.03399432 -0.50718406 -6.38438327 0.00559473 0 0 Z " fill="#8B51FD" transform="translate(263.84375,215.8671875)"/>
<path d="M0 0 C0.66 0.66 1.32 1.32 2 2 C1.7831713 6.87864583 0.25135812 9.43399432 -3 13 C-2.154375 13.70125 -1.30875 14.4025 -0.4375 15.125 C2 18 2 18 1.8125 21.3125 C1.544375 22.199375 1.27625 23.08625 1 24 C-3.17257103 24.49673465 -4.68777124 24.22039677 -8.1875 21.75 C-9.115625 20.8425 -10.04375 19.935 -11 19 C-11.639375 18.38125 -12.27875 17.7625 -12.9375 17.125 C-14.6961547 13.60769059 -14.17956391 11.72493866 -13 8 C-6.26469368 -0.92310884 -6.26469368 -0.92310884 0 0 Z " fill="#8951FA" transform="translate(269,105)"/>
<path d="M0 0 C2.4921875 1.85546875 2.4921875 1.85546875 4.875 4.1875 C5.67679687 4.94417969 6.47859375 5.70085937 7.3046875 6.48046875 C9 9 9 9 8.98828125 12.02734375 C7.3568082 16.93465993 4.11454455 19.97415793 0 23 C-3.4375 23.5625 -3.4375 23.5625 -6 23 C-6.33 22.67 -6.66 22.34 -7 22 C-6.53017945 15.65742251 -6.53017945 15.65742251 -4.4375 13.0625 C-3.963125 12.711875 -3.48875 12.36125 -3 12 C-4.15173355 9.53199953 -5.04783565 7.95216435 -7 6 C-7.125 2.875 -7.125 2.875 -7 0 C-4.21987966 -1.39006017 -2.94979472 -0.90729838 0 0 Z " fill="#8A51FC" transform="translate(313,106)"/>
<path d="M0 0 C2.64 0 5.28 0 8 0 C8 10.23 8 20.46 8 31 C5.36 31 2.72 31 0 31 C0 20.77 0 10.54 0 0 Z " fill="#020608" transform="translate(217,322)"/>
<path d="M0 0 C15.51 0 31.02 0 47 0 C47 1.65 47 3.3 47 5 C31.49 5 15.98 5 0 5 C0 3.35 0 1.7 0 0 Z " fill="#CF4062" transform="translate(89,312)"/>
<path d="M0 0 C0.66 0 1.32 0 2 0 C3.05523483 5.1807205 3.13429372 10.15469469 3.140625 15.4140625 C3.15893676 17.24480427 3.17850553 19.07553382 3.19921875 20.90625 C3.22827683 23.7746275 3.25000291 26.6422074 3.25048828 29.51074219 C3.25381595 32.29172493 3.28829735 35.07089424 3.328125 37.8515625 C3.31752045 39.13759872 3.31752045 39.13759872 3.30670166 40.44961548 C3.38780913 45.52589101 3.38780913 45.52589101 6.42138672 49.52001953 C17.30031694 55.76391983 32.30040306 53.72423047 44 51 C44.33 51.66 44.66 52.32 45 53 C39.20093238 55.7364393 33.49436291 55.37210831 27.18994141 55.37060547 C25.13749847 55.3749734 23.0872187 55.41131786 21.03515625 55.44921875 C8.52510243 55.48619428 8.52510243 55.48619428 3 51 C0.33902768 48.03097881 -0.37260515 46.20303908 -0.34057617 42.23144531 C-0.34034958 41.29077209 -0.34012299 40.35009888 -0.33988953 39.38092041 C-0.32440567 38.37349792 -0.30892181 37.36607544 -0.29296875 36.328125 C-0.28872391 35.29057068 -0.28447906 34.25301636 -0.28010559 33.184021 C-0.26332223 29.87241592 -0.22566992 26.56142093 -0.1875 23.25 C-0.17245275 21.00391504 -0.15876442 18.75782054 -0.14648438 16.51171875 C-0.11341986 11.00760459 -0.0632236 5.50384588 0 0 Z " fill="#1E325A" transform="translate(87,312)"/>
<path d="M0 0 C2.5 0.25 2.5 0.25 4.5 2.25 C4.9523235 5.89753667 4.82406287 9.57763261 4.8125 13.25 C4.82861328 14.27351562 4.84472656 15.29703125 4.86132812 16.3515625 C4.86197266 17.32867187 4.86261719 18.30578125 4.86328125 19.3125 C4.86626221 20.21097656 4.86924316 21.10945313 4.87231445 22.03515625 C4.74945068 22.76605469 4.62658691 23.49695313 4.5 24.25 C1.5 26.25 1.5 26.25 -1.125 26 C-1.90875 25.7525 -2.6925 25.505 -3.5 25.25 C-5.38519529 21.47960943 -4.68475994 16.89845405 -4.6875 12.75 C-4.69974609 11.77417969 -4.71199219 10.79835937 -4.72460938 9.79296875 C-4.72654297 8.86097656 -4.72847656 7.92898437 -4.73046875 6.96875 C-4.73457764 6.11216797 -4.73868652 5.25558594 -4.74291992 4.37304688 C-4.36646058 1.08290569 -3.21912272 0.32191227 0 0 Z " fill="#8951FB" transform="translate(333.5,172.75)"/>
<path d="M0 0 C3.0625 0.1875 3.0625 0.1875 5.0625 2.1875 C5.32128906 4.11108398 5.32128906 4.11108398 5.328125 6.43359375 C5.33070313 7.27083984 5.33328125 8.10808594 5.3359375 8.97070312 C5.32820313 9.84662109 5.32046875 10.72253906 5.3125 11.625 C5.32023437 12.49705078 5.32796875 13.36910156 5.3359375 14.26757812 C5.33335937 15.10611328 5.33078125 15.94464844 5.328125 16.80859375 C5.32586914 17.5761499 5.32361328 18.34370605 5.32128906 19.13452148 C5.0625 21.1875 5.0625 21.1875 3.0625 24.1875 C0.5625 24.5 0.5625 24.5 -1.9375 24.1875 C-3.9375 22.1875 -3.9375 22.1875 -4.18041992 20.04858398 C-4.17631104 19.18563721 -4.17220215 18.32269043 -4.16796875 17.43359375 C-4.16603516 16.49708984 -4.16410156 15.56058594 -4.16210938 14.59570312 C-4.14986328 13.61537109 -4.13761719 12.63503906 -4.125 11.625 C-4.12435547 10.64080078 -4.12371094 9.65660156 -4.12304688 8.64257812 C-4.07105203 0.25985439 -4.07105203 0.25985439 0 0 Z " fill="#8650F6" transform="translate(309.9375,241.8125)"/>
<path d="M0 0 C3 0.125 3 0.125 4 1.125 C4.25208722 4.93088144 4.18522344 8.74925456 4.1875 12.5625 C4.19974609 13.63822266 4.21199219 14.71394531 4.22460938 15.82226562 C4.22750977 17.36237305 4.22750977 17.36237305 4.23046875 18.93359375 C4.23457764 19.88032959 4.23868652 20.82706543 4.24291992 21.80249023 C4 24.125 4 24.125 2 26.125 C-2.55555556 25.56944444 -2.55555556 25.56944444 -4 24.125 C-4.09932153 22.42941274 -4.13080007 20.72974253 -4.1328125 19.03125 C-4.13474609 17.48630859 -4.13474609 17.48630859 -4.13671875 15.91015625 C-4.13285156 14.82605469 -4.12898438 13.74195313 -4.125 12.625 C-4.12886719 11.54089844 -4.13273437 10.45679688 -4.13671875 9.33984375 C-4.13542969 8.30988281 -4.13414062 7.27992188 -4.1328125 6.21875 C-4.13168457 5.26677734 -4.13055664 4.31480469 -4.12939453 3.33398438 C-3.92827881 -0.09940255 -3.50758373 0.14614932 0 0 Z " fill="#8A51FD" transform="translate(289,172.875)"/>
<path d="M0 0 C3 0.125 3 0.125 4 1.125 C4.1575897 8.53171577 -0.25654346 12.81892489 -5 18.125 C-5.66 18.785 -6.32 19.445 -7 20.125 C-10.125 19.75 -10.125 19.75 -13 19.125 C-13.4939102 14.48502669 -12.71395407 12.0727836 -9.84960938 8.38085938 C-9.42486328 7.86330078 -9.00011719 7.34574219 -8.5625 6.8125 C-8.14162109 6.27560547 -7.72074219 5.73871094 -7.28710938 5.18554688 C-3.30879896 0.13786662 -3.30879896 0.13786662 0 0 Z " fill="#8851F9" transform="translate(293,107.875)"/>
<path d="M0 0 C3 0.125 3 0.125 4 1.125 C4.25098924 4.59708807 4.18522096 8.0824062 4.1875 11.5625 C4.19974609 12.54283203 4.21199219 13.52316406 4.22460938 14.53320312 C4.22750977 15.93795898 4.22750977 15.93795898 4.23046875 17.37109375 C4.23457764 18.23404053 4.23868652 19.0969873 4.24291992 19.98608398 C4 22.125 4 22.125 2 24.125 C-2.55555556 23.56944444 -2.55555556 23.56944444 -4 22.125 C-4.09899523 20.57544441 -4.13079524 19.02146327 -4.1328125 17.46875 C-4.13410156 16.52902344 -4.13539063 15.58929688 -4.13671875 14.62109375 C-4.13285156 13.63238281 -4.12898438 12.64367187 -4.125 11.625 C-4.12886719 10.63628906 -4.13273437 9.64757812 -4.13671875 8.62890625 C-4.13542969 7.68917969 -4.13414062 6.74945313 -4.1328125 5.78125 C-4.13168457 4.91306641 -4.13055664 4.04488281 -4.12939453 3.15039062 C-3.91897436 -0.14328062 -3.36486222 0.14020259 0 0 Z " fill="#8B51FD" transform="translate(293,241.875)"/>
<path d="M0 0 C3.64581687 -0.02887512 7.29160463 -0.04675585 10.9375 -0.0625 C12.49887695 -0.07506836 12.49887695 -0.07506836 14.09179688 -0.08789062 C15.08115234 -0.09111328 16.07050781 -0.09433594 17.08984375 -0.09765625 C18.46450806 -0.10551147 18.46450806 -0.10551147 19.86694336 -0.11352539 C22 0 22 0 23 1 C23.1875 3.4375 23.1875 3.4375 23 6 C21 8 21 8 18.84521484 8.22705078 C17.97590332 8.21657715 17.1065918 8.20610352 16.2109375 8.1953125 C15.26992188 8.18886719 14.32890625 8.18242188 13.359375 8.17578125 C12.37453125 8.15902344 11.3896875 8.14226562 10.375 8.125 C9.38242187 8.11597656 8.38984375 8.10695313 7.3671875 8.09765625 C4.91121866 8.07404116 2.45572832 8.04110799 0 8 C-1.125 2.25 -1.125 2.25 0 0 Z " fill="#8A51FC" transform="translate(279,79)"/>
<path d="M0 0 C0.804375 -0.00128906 1.60875 -0.00257813 2.4375 -0.00390625 C3.283125 -0.00003906 4.12875 0.00382813 5 0.0078125 C6.2684375 0.00201172 6.2684375 0.00201172 7.5625 -0.00390625 C8.366875 -0.00261719 9.17125 -0.00132812 10 0 C10.7425 0.00112793 11.485 0.00225586 12.25 0.00341797 C14 0.1328125 14 0.1328125 15 1.1328125 C15.1875 3.5703125 15.1875 3.5703125 15 6.1328125 C12.44051001 8.69230249 10.72792805 8.39349981 7.234375 8.40625 C6.49703125 8.39851562 5.7596875 8.39078125 5 8.3828125 C3.89398438 8.39441406 3.89398438 8.39441406 2.765625 8.40625 C-2.7466804 8.3861321 -2.7466804 8.3861321 -5 6.1328125 C-5.1875 3.5703125 -5.1875 3.5703125 -5 1.1328125 C-3.4779041 -0.3892834 -2.11789918 0.00321729 0 0 Z " fill="#8A51FD" transform="translate(330,216.8671875)"/>
<path d="M0 0 C0.79792969 0.00386719 1.59585937 0.00773438 2.41796875 0.01171875 C3.21589844 0.00785156 4.01382812 0.00398437 4.8359375 0 C10.79136108 0.01011108 10.79136108 0.01011108 11.91796875 1.13671875 C12.10546875 3.57421875 12.10546875 3.57421875 11.91796875 6.13671875 C9.35847876 8.69620874 7.6458968 8.39740606 4.15234375 8.41015625 C3.415 8.40242187 2.67765625 8.3946875 1.91796875 8.38671875 C0.81195313 8.39832031 0.81195313 8.39832031 -0.31640625 8.41015625 C-5.82871165 8.39003835 -5.82871165 8.39003835 -8.08203125 6.13671875 C-7.32167657 -0.09818964 -6.12135273 0.01039279 0 0 Z " fill="#8951FA" transform="translate(305.08203125,216.86328125)"/>
<path d="M0 0 C0.66 0 1.32 0 2 0 C6.73076923 5.19230769 6.73076923 5.19230769 8 9 C7.34 9 6.68 9 6 9 C5.67 10.65 5.34 12.3 5 14 C-1.75 15 -1.75 15 -4 15 C-4.268125 14.401875 -4.53625 13.80375 -4.8125 13.1875 C-5.98493467 11.02775192 -7.19369282 9.64209744 -9 8 C-8.01 7.34 -7.02 6.68 -6 6 C-4.31337542 4.35353315 -2.64488294 2.68816933 -1 1 C-0.67 0.67 -0.34 0.34 0 0 Z " fill="#ECEDF1" transform="translate(101,322)"/>
<path d="M0 0 C4.55555556 0.55555556 4.55555556 0.55555556 6 2 C6.09909302 4.33160055 6.12970504 6.66629942 6.125 9 C6.12757813 10.27875 6.13015625 11.5575 6.1328125 12.875 C6 16 6 16 5 17 C2 17.125 2 17.125 -1 17 C-2.93341947 15.06658053 -2.17449133 11.62520879 -2.1875 9.0625 C-2.20167969 7.79535156 -2.21585937 6.52820313 -2.23046875 5.22265625 C-2 2 -2 2 0 0 Z " fill="#8A51FB" transform="translate(272,177)"/>
<path d="M0 0 C8.625 -0.25 8.625 -0.25 12 2 C12.3125 5.5 12.3125 5.5 12 9 C10 11 10 11 7.6171875 11.1953125 C6.71226562 11.17210937 5.80734375 11.14890625 4.875 11.125 C2.461875 11.063125 2.461875 11.063125 0 11 C0 7.37 0 3.74 0 0 Z " fill="#193745" transform="translate(387,404)"/>
<path d="M0 0 C3 0.125 3 0.125 4 1.125 C4.09873816 3.12299572 4.12971799 5.12457158 4.125 7.125 C4.12757813 8.218125 4.13015625 9.31125 4.1328125 10.4375 C4 13.125 4 13.125 3 14.125 C0.5625 14.3125 0.5625 14.3125 -2 14.125 C-4 12.125 -4 12.125 -4.23046875 9.55859375 C-4.21628906 8.56988281 -4.20210938 7.58117187 -4.1875 6.5625 C-4.18105469 5.57121094 -4.17460937 4.57992187 -4.16796875 3.55859375 C-3.91960518 -0.03979013 -3.67326264 0.15305261 0 0 Z " fill="#8A51FC" transform="translate(348,178.875)"/>
<path d="M0 0 C3 0.125 3 0.125 4 1.125 C4.12487758 2.93427281 4.17570846 4.74896107 4.1875 6.5625 C4.20167969 7.55121094 4.21585937 8.53992188 4.23046875 9.55859375 C4 12.125 4 12.125 2 14.125 C-0.5625 14.3125 -0.5625 14.3125 -3 14.125 C-4 13.125 -4 13.125 -4.1328125 10.4375 C-4.13023437 9.344375 -4.12765625 8.25125 -4.125 7.125 C-4.12757813 6.031875 -4.13015625 4.93875 -4.1328125 3.8125 C-3.94533097 0.01875601 -3.83780055 0.15990836 0 0 Z " fill="#8A51FC" transform="translate(304,178.875)"/>
<path d="M0 0 C1.48306641 0.02126953 1.48306641 0.02126953 2.99609375 0.04296875 C3.98738281 0.04941406 4.97867187 0.05585937 6 0.0625 C8.43359375 0.23046875 8.43359375 0.23046875 9.43359375 1.23046875 C9.55859375 4.23046875 9.55859375 4.23046875 9.43359375 7.23046875 C8.43359375 8.23046875 8.43359375 8.23046875 5.7109375 8.328125 C4.05771484 8.31072266 4.05771484 8.31072266 2.37109375 8.29296875 C0.71400391 8.27943359 0.71400391 8.27943359 -0.9765625 8.265625 C-1.83121094 8.25402344 -2.68585938 8.24242188 -3.56640625 8.23046875 C-4.19140625 5.35546875 -4.19140625 5.35546875 -4.56640625 2.23046875 C-2.56640625 0.23046875 -2.56640625 0.23046875 0 0 Z " fill="#8B51FD" transform="translate(259.56640625,78.76953125)"/>
<path d="M0 0 C3.5625 0.25 3.5625 0.25 6.5625 2.25 C6.875 4.75 6.875 4.75 6.5625 7.25 C4.5625 9.25 4.5625 9.25 2.6875 9.515625 C1.98625 9.51046875 1.285 9.5053125 0.5625 9.5 C-0.13875 9.50515625 -0.84 9.5103125 -1.5625 9.515625 C-3.4375 9.25 -3.4375 9.25 -5.4375 7.25 C-5.6875 4.75 -5.6875 4.75 -5.4375 2.25 C-3.4375 0.25 -3.4375 0.25 0 0 Z " fill="#8750F8" transform="translate(260.4375,146.75)"/>
<path d="M0 0 C2.5 0.25 2.5 0.25 4.5 2.25 C3.93181818 7.81818182 3.93181818 7.81818182 2.5 9.25 C0.0625 9.4375 0.0625 9.4375 -2.5 9.25 C-4.5 7.25 -4.5 7.25 -4.75 4.75 C-4.40058445 1.25584452 -3.49415548 0.34941555 0 0 Z " fill="#864FF6" transform="translate(259.5,283.75)"/>
<path d="M0 0 C3 0.125 3 0.125 4 1.125 C4.1875 3.5625 4.1875 3.5625 4 6.125 C2 8.125 2 8.125 -0.5 8.375 C-3 8.125 -3 8.125 -5 6.125 C-4.27477017 0.17811542 -4.27477017 0.17811542 0 0 Z " fill="#864FF5" transform="translate(319,181.875)"/>
<path d="M0 0 C2.375 0.3125 2.375 0.3125 5 1 C7 4 7 4 6.625 6.1875 C6.41875 6.785625 6.2125 7.38375 6 8 C-0.75 9 -0.75 9 -3 9 C-3.268125 8.401875 -3.53625 7.80375 -3.8125 7.1875 C-4.98493467 5.02775192 -6.19369282 3.64209744 -8 2 C-3.125 3.75 -3.125 3.75 -2 6 C-1.01 6 -0.02 6 1 6 C0.34 5.34 -0.32 4.68 -1 4 C-0.625 1.875 -0.625 1.875 0 0 Z " fill="#B6BCCD" transform="translate(100,328)"/>
<path d="M0 0 C3.0625 0.1875 3.0625 0.1875 5.0625 2.1875 C4.50694444 6.74305556 4.50694444 6.74305556 3.0625 8.1875 C0.625 8.375 0.625 8.375 -1.9375 8.1875 C-3.9375 6.1875 -3.9375 6.1875 -4.125 3.625 C-3.8509967 0.06295712 -3.62735131 0.23153306 0 0 Z " fill="#8750F7" transform="translate(362.9375,181.8125)"/>
<path d="M0 0 C3 1 3 1 4.6875 3.875 C6 7 6 7 6 10 C3.03 10 0.06 10 -3 10 C-2.1469752 6.5879008 -1.13357275 3.32514673 0 0 Z " fill="#112A35" transform="translate(367,332)"/>
<path d="M0 0 C0.99 0 1.98 0 3 0 C2.9278125 0.65226562 2.855625 1.30453125 2.78125 1.9765625 C2.28243834 6.6737056 1.87548754 11.26852656 2 16 C1.01 16 0.02 16 -1 16 C-1 15.34 -1 14.68 -1 14 C-1.53625 13.071875 -2.0725 12.14375 -2.625 11.1875 C-4 8 -4 8 -3.1875 5.125 C-2.795625 4.42375 -2.40375 3.7225 -2 3 C-1.34 3 -0.68 3 0 3 C0 2.01 0 1.02 0 0 Z " fill="#A99A43" transform="translate(123,344)"/>
<path d="M0 0 C2.31 0 4.62 0 7 0 C7.04241723 2.33294775 7.04092937 4.66702567 7 7 C6 8 6 8 3.5625 8.1875 C1 8 1 8 -1 6 C-0.625 2.875 -0.625 2.875 0 0 Z " fill="#8850F9" transform="translate(256,182)"/>
<path d="M0 0 C0.66 0 1.32 0 2 0 C5 6.5 5 6.5 5 11 C2.36 11 -0.28 11 -3 11 C-2.44894091 7.0507432 -1.61064629 3.65079826 0 0 Z " fill="#0F2631" transform="translate(277,331)"/>
<path d="M0 0 C0.33 0 0.66 0 1 0 C1.495 2.97 1.495 2.97 2 6 C1.01 6.66 0.02 7.32 -1 8 C-1 7.34 -1 6.68 -1 6 C-16.18 6 -31.36 6 -47 6 C-47 5.67 -47 5.34 -47 5 C-31.49 5 -15.98 5 0 5 C0 3.35 0 1.7 0 0 Z " fill="#472248" transform="translate(136,312)"/>
<path d="M0 0 C0.94875 0.04125 1.8975 0.0825 2.875 0.125 C2.875 0.785 2.875 1.445 2.875 2.125 C0.895 2.125 -1.085 2.125 -3.125 2.125 C-3.125 8.065 -3.125 14.005 -3.125 20.125 C-4.115 19.795 -5.105 19.465 -6.125 19.125 C-5.95871094 18.60164063 -5.79242188 18.07828125 -5.62109375 17.5390625 C-4.7713795 13.40423252 -5.16712214 9.22545182 -5.28515625 5.0234375 C-5.05415518 0.84288148 -4.15308787 0.16612351 0 0 Z " fill="#09171E" transform="translate(255.125,320.875)"/>
<path d="M0 0 C2.97 0 5.94 0 9 0 C9 1.32 9 2.64 9 4 C10.32 4.33 11.64 4.66 13 5 C8.71 5 4.42 5 0 5 C0 3.35 0 1.7 0 0 Z " fill="#C54161" transform="translate(89,312)"/>
<path d="M0 0 C0.66 0.33 1.32 0.66 2 1 C1.01 1.33 0.02 1.66 -1 2 C-1 2.99 -1 3.98 -1 5 C0.65 5 2.3 5 4 5 C4 5.33 4 5.66 4 6 C3.05125 6.0825 2.1025 6.165 1.125 6.25 C-2.10461791 6.65074923 -2.10461791 6.65074923 -3.375 9.0625 C-3.684375 10.0215625 -3.684375 10.0215625 -4 11 C-3.01 11 -2.02 11 -1 11 C-1.33 11.66 -1.66 12.32 -2 13 C-2.99 12.67 -3.98 12.34 -5 12 C-5 11.01 -5 10.02 -5 9 C-6.65 8.67 -8.3 8.34 -10 8 C-10 7.67 -10 7.34 -10 7 C-7.69 6.34 -5.38 5.68 -3 5 C-2.814375 4.0409375 -2.814375 4.0409375 -2.625 3.0625 C-2.41875 2.381875 -2.2125 1.70125 -2 1 C-1.34 0.67 -0.68 0.34 0 0 Z " fill="#666E7B" transform="translate(109,330)"/>
<path d="M0 0 C2.31 0 4.62 0 7 0 C7 0.99 7 1.98 7 3 C7.99 3 8.98 3 10 3 C10 3.66 10 4.32 10 5 C6.7 4.67 3.4 4.34 0 4 C0 2.68 0 1.36 0 0 Z " fill="#D03E60" transform="translate(98,312)"/>
<path d="M0 0 C0.99 0.33 1.98 0.66 3 1 C4.1875 3.5625 4.1875 3.5625 5 6 C3.68 5.34 2.36 4.68 1 4 C1 8.95 1 13.9 1 19 C0.67 19 0.34 19 0 19 C0 12.73 0 6.46 0 0 Z " fill="#09181F" transform="translate(237,334)"/>
<path d="M0 0 C3.375 0.25 3.375 0.25 7 1 C8.4375 3.0625 8.4375 3.0625 9 5 C7.02 5.99 7.02 5.99 5 7 C5 5.68 5 4.36 5 3 C3.02 3 1.04 3 -1 3 C-0.67 2.01 -0.34 1.02 0 0 Z " fill="#F3F4F7" transform="translate(100,326)"/>
<path d="M0 0 C0.78375 0.33 1.5675 0.66 2.375 1 C6.99361869 2.27410171 11.24249356 2.16923936 16 2 C16 2.66 16 3.32 16 4 C10.39 4 4.78 4 -1 4 C-0.67 2.68 -0.34 1.36 0 0 Z " fill="#09171E" transform="translate(298,343)"/>
<path d="M0 0 C2.1519437 3.22791555 2.20086443 4.28400809 2 8 C0.02 8 -1.96 8 -4 8 C-3.34 6.68 -2.68 5.36 -2 4 C-1.34 4 -0.68 4 0 4 C0 2.68 0 1.36 0 0 Z " fill="#BDAA3E" transform="translate(105,353)"/>
<path d="M0 0 C1.625 1.5 1.625 1.5 3 3 C2.67 3.66 2.34 4.32 2 5 C0.88625 4.979375 -0.2275 4.95875 -1.375 4.9375 C-4.83215921 4.73619282 -4.83215921 4.73619282 -7 6 C-5.81636731 2.44910192 -3.99368042 0 0 0 Z " fill="#9AA2B9" transform="translate(103,322)"/>
<path d="M0 0 C0.99 0 1.98 0 3 0 C3 1.32 3 2.64 3 4 C4.32 4.33 5.64 4.66 7 5 C4.03 5 1.06 5 -2 5 C-1.34 3.35 -0.68 1.7 0 0 Z " fill="#C30632" transform="translate(95,312)"/>
<path d="M0 0 C1.98 0.495 1.98 0.495 4 1 C4 2.32 4 3.64 4 5 C2.35 4.67 0.7 4.34 -1 4 C-0.67 2.68 -0.34 1.36 0 0 Z " fill="#58658B" transform="translate(100,328)"/>
<path d="M0 0 C1.32 0 2.64 0 4 0 C4.33 1.65 4.66 3.3 5 5 C3.02 5 1.04 5 -1 5 C-0.67 3.35 -0.34 1.7 0 0 Z " fill="#C20430" transform="translate(114,312)"/>
<path d="M0 0 C0.66 0 1.32 0 2 0 C2.33 0.66 2.66 1.32 3 2 C4.89533342 2.46523063 4.89533342 2.46523063 7.0625 2.625 C8.361875 2.74875 9.66125 2.8725 11 3 C11 3.33 11 3.66 11 4 C7.04 4 3.08 4 -1 4 C-0.67 2.68 -0.34 1.36 0 0 Z " fill="#D3BB39" transform="translate(111,357)"/>
<path d="M0 0 C2.29013653 3.4352048 2.17842973 4.985331 2 9 C1.01 9 0.02 9 -1 9 C-1 5.95799954 -0.44513658 3.00467194 0 0 Z " fill="#8C844A" transform="translate(123,351)"/>
<path d="M0 0 C-0.66 1.98 -1.32 3.96 -2 6 C-3.32 5.67 -4.64 5.34 -6 5 C-4.87312259 1.61936778 -3.78825335 0 0 0 Z " fill="#AB9C43" transform="translate(134,328)"/>
<path d="M0 0 C1.32 0.33 2.64 0.66 4 1 C3.67 2.32 3.34 3.64 3 5 C2.01 5 1.02 5 0 5 C0 3.35 0 1.7 0 0 Z " fill="#535958" transform="translate(107,356)"/>
</svg>
