<?xml version="1.0" encoding="UTF-8"?>
<svg version="1.1" xmlns="http://www.w3.org/2000/svg" width="299" height="64">
<path d="M0 0 C15.84 0 31.68 0 48 0 C48.06889728 6.88717588 48.12862494 13.77315438 48.16479492 20.66040039 C48.17987428 23.00288954 48.20034078 25.3453505 48.22631836 27.68774414 C48.26273821 31.05622317 48.27973513 34.42432864 48.29296875 37.79296875 C48.30845261 38.83897751 48.32393646 39.88498627 48.33988953 40.96269226 C48.34199098 50.05725763 48.34199098 50.05725763 45 54 C40.56129343 57.77290058 36.05317855 58.95219675 30.48828125 60.19140625 C27.86688394 61.0432575 26.73641768 61.90352247 25 64 C23.515 63.505 23.515 63.505 22 63 C22 62.34 22 61.68 22 61 C21.13117187 60.82984375 20.26234375 60.6596875 19.3671875 60.484375 C6.36436915 57.75000157 6.36436915 57.75000157 1.37284851 52.18634033 C-0.28307551 49.54918594 -0.36401836 48.05042302 -0.34057617 44.95605469 C-0.34034958 43.95531921 -0.34012299 42.95458374 -0.33988953 41.92352295 C-0.32440567 40.85047913 -0.30892181 39.7774353 -0.29296875 38.671875 C-0.28872391 37.56773254 -0.28447906 36.46359009 -0.28010559 35.32598877 C-0.26331668 31.80041084 -0.22566309 28.27540509 -0.1875 24.75 C-0.17245348 22.35938326 -0.15876502 19.96875755 -0.14648438 17.578125 C-0.11596473 11.71835236 -0.05724133 5.85981644 0 0 Z " fill="#263565" transform="translate(0,0)"/>
<path d="M0 0 C1.32 0.99 2.64 1.98 4 3 C4.66 2.01 5.32 1.02 6 0 C6.66 1.32 7.32 2.64 8 4 C8.66 3.01 9.32 2.02 10 1 C10.33 2.65 10.66 4.3 11 6 C11.99 4.68 12.98 3.36 14 2 C14 3.65 14 5.3 14 7 C14.66 6.67 15.32 6.34 16 6 C15.46194733 11.27291614 14.5763639 15.39935018 12 20 C9.3125 20.9375 9.3125 20.9375 7 21 C7.66 21.33 8.32 21.66 9 22 C8.835 23.216875 8.67 24.43375 8.5 25.6875 C8.17361688 28.17947919 8.01526672 30.35113461 8.125 32.875 C8.08375 33.57625 8.0425 34.2775 8 35 C4.68629 37.20914 3.6553979 37.22481553 -0.1875 37.125 C-1.08855469 37.10695312 -1.98960938 37.08890625 -2.91796875 37.0703125 C-3.60503906 37.04710937 -4.29210938 37.02390625 -5 37 C-5.33 35.35 -5.66 33.7 -6 32 C-6.66 33.32 -7.32 34.64 -8 36 C-9.98 36 -11.96 36 -14 36 C-13.525625 35.525625 -13.05125 35.05125 -12.5625 34.5625 C-10.6155761 31.36954481 -10.60093074 28.86386234 -10.31640625 25.1953125 C-9.8999075 22.30553108 -8.72469975 20.32459531 -7 18 C-7.99 18 -8.98 18 -10 18 C-9.34 16.35 -8.68 14.7 -8 13 C-5.69 13.33 -3.38 13.66 -1 14 C-0.34 15.65 0.32 17.3 1 19 C1.6896868 13.4825056 1.44252427 9.95480298 -2 5.4375 C-2.97962311 4.27419755 -3.97302769 3.12172274 -5 2 C-3.35 2.33 -1.7 2.66 0 3 C0 2.01 0 1.02 0 0 Z " fill="#E5C835" transform="translate(27,16)"/>
<path d="M0 0 C8 0 8 0 9.82617188 1.37695312 C10.20322266 2.00537109 10.58027344 2.63378906 10.96875 3.28125 C11.39414063 3.95800781 11.81953125 4.63476562 12.2578125 5.33203125 C12.66773437 6.04746094 13.07765625 6.76289063 13.5 7.5 C13.94085938 8.21542969 14.38171875 8.93085938 14.8359375 9.66796875 C15.91647583 11.42971602 16.96181775 13.21296498 18 15 C18.33 10.05 18.66 5.1 19 0 C21.31 0 23.62 0 26 0 C26 9.57 26 19.14 26 29 C18 29 18 29 16.17382812 27.62304688 C15.79677734 26.99462891 15.41972656 26.36621094 15.03125 25.71875 C14.60585937 25.04199219 14.18046875 24.36523438 13.7421875 23.66796875 C13.33226563 22.95253906 12.92234375 22.23710938 12.5 21.5 C12.05914062 20.78457031 11.61828125 20.06914063 11.1640625 19.33203125 C10.08352417 17.57028398 9.03818225 15.78703502 8 14 C7.67 18.95 7.34 23.9 7 29 C4.69 29 2.38 29 0 29 C0 19.43 0 9.86 0 0 Z " fill="#000000" transform="translate(89,16)"/>
<path d="M0 0 C7 0 7 0 9.36328125 2.30078125 C10.00652344 3.29464844 10.64976562 4.28851563 11.3125 5.3125 C11.96863281 6.29863281 12.62476563 7.28476562 13.30078125 8.30078125 C13.86152344 9.19152344 14.42226562 10.08226562 15 11 C15.99 12.485 15.99 12.485 17 14 C17.33 9.38 17.66 4.76 18 0 C20.31 0 22.62 0 25 0 C25 9.57 25 19.14 25 29 C18 29 18 29 15.63671875 26.69921875 C14.99347656 25.70535156 14.35023438 24.71148437 13.6875 23.6875 C12.70330078 22.20830078 12.70330078 22.20830078 11.69921875 20.69921875 C11.13847656 19.80847656 10.57773438 18.91773437 10 18 C9.34 17.01 8.68 16.02 8 15 C7.67 19.62 7.34 24.24 7 29 C4.69 29 2.38 29 0 29 C0 19.43 0 9.86 0 0 Z " fill="#000000" transform="translate(132,16)"/>
<path d="M0 0 C2.64 0 5.28 0 8 0 C9.5734726 3.64493255 11.13984244 7.29282581 12.69970703 10.94360352 C13.23129273 12.18499721 13.76480845 13.4255663 14.30029297 14.6652832 C15.06985843 16.44784809 15.8319069 18.23365229 16.59375 20.01953125 C17.05458984 21.09307861 17.51542969 22.16662598 17.99023438 23.27270508 C19 26 19 26 19 29 C16.69 29 14.38 29 12 29 C11.67 27.68 11.34 26.36 11 25 C6.38 25 1.76 25 -3 25 C-3.33 26.32 -3.66 27.64 -4 29 C-6.64 29 -9.28 29 -12 29 C-8.02188379 19.32412081 -4.03564085 9.65206268 0 0 Z M4 10 C2.02 14.455 2.02 14.455 0 19 C2.64 19 5.28 19 8 19 C7.01 16.03 6.02 13.06 5 10 C4.67 10 4.34 10 4 10 Z " fill="#000000" transform="translate(171,16)"/>
<path d="M0 0 C2.64 0 5.28 0 8 0 C9.5734726 3.64493255 11.13984244 7.29282581 12.69970703 10.94360352 C13.23129273 12.18499721 13.76480845 13.4255663 14.30029297 14.6652832 C15.06985843 16.44784809 15.8319069 18.23365229 16.59375 20.01953125 C17.05458984 21.09307861 17.51542969 22.16662598 17.99023438 23.27270508 C19 26 19 26 19 29 C16.69 29 14.38 29 12 29 C11.67 27.68 11.34 26.36 11 25 C6.38 25 1.76 25 -3 25 C-3.33 26.32 -3.66 27.64 -4 29 C-6.64 29 -9.28 29 -12 29 C-10.75298819 25.8529742 -9.50183003 22.70761197 -8.25 19.5625 C-7.90195313 18.68400391 -7.55390625 17.80550781 -7.1953125 16.90039062 C-4.92576579 11.20550953 -2.53533728 5.58166617 0 0 Z M3 10 C2.01 12.97 1.02 15.94 0 19 C2.64 19 5.28 19 8 19 C7.01 16.03 6.02 13.06 5 10 C4.34 10 3.68 10 3 10 Z " fill="#000000" transform="translate(254,16)"/>
<path d="M0 0 C2.31 0 4.62 0 7 0 C7.01981934 0.59538574 7.03963867 1.19077148 7.06005859 1.80419922 C7.15516126 4.49492153 7.26489842 7.18485148 7.375 9.875 C7.4059375 10.81214844 7.436875 11.74929687 7.46875 12.71484375 C7.50742188 13.61074219 7.54609375 14.50664062 7.5859375 15.4296875 C7.6173584 16.25710449 7.6487793 17.08452148 7.68115234 17.93701172 C7.82599137 20.21986085 7.82599137 20.21986085 10 22 C13.09926819 21.67801034 13.09926819 21.67801034 16 21 C16.88639389 18.34081834 17.17989025 16.51935359 17.31640625 13.76953125 C17.35830078 12.96708984 17.40019531 12.16464844 17.44335938 11.33789062 C17.48267578 10.50451172 17.52199219 9.67113281 17.5625 8.8125 C17.60568359 7.96751953 17.64886719 7.12253906 17.69335938 6.25195312 C17.79931518 4.16815567 17.9001502 2.08409897 18 0 C20.31 0 22.62 0 25 0 C25.08149592 3.02138567 25.14073421 6.04053905 25.1875 9.0625 C25.21263672 9.91005859 25.23777344 10.75761719 25.26367188 11.63085938 C25.33633146 17.90380326 24.71675474 23.08919135 20.25 27.875 C16.09284975 29.95357513 12.40679222 30.28135844 7.875 29.375 C4.18473612 27.61009119 2.46653248 26.32302456 0 23 C-0.61906072 19.04614502 -0.47091067 15.17701176 -0.3125 11.1875 C-0.28994141 10.11306641 -0.26738281 9.03863281 -0.24414062 7.93164062 C-0.18535598 5.2863315 -0.10323957 2.64388587 0 0 Z " fill="#000000" transform="translate(60,16)"/>
<path d="M0 0 C0.61875 0.33 1.2375 0.66 1.875 1 C1.545 2.98 1.215 4.96 0.875 7 C-4.57 6.505 -4.57 6.505 -10.125 6 C-10.455 6.66 -10.785 7.32 -11.125 8 C-10.36574219 8.25394531 -9.60648438 8.50789063 -8.82421875 8.76953125 C-7.83035156 9.11371094 -6.83648437 9.45789062 -5.8125 9.8125 C-4.33330078 10.31716797 -4.33330078 10.31716797 -2.82421875 10.83203125 C-0.18905287 11.97228392 1.21477991 12.68341383 2.875 15 C3.55304953 18.06817412 3.46017554 20.91807547 2.875 24 C0.32486615 27.09107133 -1.53029447 27.83988697 -5.375 28.875 C-9.84874914 29.02412497 -13.88933678 28.47514951 -18.125 27 C-18.785 26.34 -19.445 25.68 -20.125 25 C-19.875 22.4375 -19.875 22.4375 -19.125 20 C-18.465 19.67 -17.805 19.34 -17.125 19 C-16.42375 19.309375 -15.7225 19.61875 -15 19.9375 C-11.19334608 21.34430688 -8.17025681 21.13712735 -4.125 21 C-4.455 20.01 -4.785 19.02 -5.125 18 C-7.84797109 16.85644777 -7.84797109 16.85644777 -11.0625 16 C-16.90605056 14.32842415 -16.90605056 14.32842415 -19.125 11 C-19.67896415 7.43160753 -19.87298017 4.1041612 -17.8125 1.0625 C-12.65239645 -2.18645409 -5.62203546 -1.79905135 0 0 Z " fill="#000000" transform="translate(238.125,17)"/>
<path d="M0 0 C0.61875 0.33 1.2375 0.66 1.875 1 C1.545 2.65 1.215 4.3 0.875 6 C-2.24680401 6.96661363 -4.64583795 6.98988909 -7.875 6.5625 C-9.07382813 6.40974609 -9.07382813 6.40974609 -10.296875 6.25390625 C-10.90015625 6.17011719 -11.5034375 6.08632813 -12.125 6 C-9.96713438 8.42675853 -8.27612596 9.48304937 -5.1875 10.4375 C-1.64606823 11.70928489 0.72011753 12.76767629 2.875 16 C3.58675407 20.34960823 3.4072053 22.23495488 0.875 25.875 C-2.77501814 28.46042952 -5.73133885 29.27314057 -10.125 29 C-13.30990654 28.3830811 -16.33680183 27.69000196 -19.125 26 C-19.96875 23.99609375 -19.96875 23.99609375 -20.125 22 C-18.6875 20.25 -18.6875 20.25 -17.125 19 C-16.56296875 19.32742187 -16.0009375 19.65484375 -15.421875 19.9921875 C-12.85640036 21.11785494 -11.15657723 21.2068111 -8.375 21.125 C-7.17617187 21.09792969 -7.17617187 21.09792969 -5.953125 21.0703125 C-5.34984375 21.04710938 -4.7465625 21.02390625 -4.125 21 C-6.49899436 17.43900846 -7.6513273 17.25484401 -11.625 16 C-16.90277778 14.33333333 -16.90277778 14.33333333 -19.125 11 C-19.67896415 7.43160753 -19.87298017 4.1041612 -17.8125 1.0625 C-12.65239645 -2.18645409 -5.62203546 -1.79905135 0 0 Z " fill="#000000" transform="translate(212.125,17)"/>
<path d="M0 0 C1.98 0 3.96 0 6 0 C6.06058594 1.26457031 6.12117188 2.52914063 6.18359375 3.83203125 C6.26800904 5.49219871 6.35265655 7.15235437 6.4375 8.8125 C6.47681641 9.64587891 6.51613281 10.47925781 6.55664062 11.33789062 C6.59853516 12.14033203 6.64042969 12.94277344 6.68359375 13.76953125 C6.72025146 14.50792236 6.75690918 15.24631348 6.79467773 16.00708008 C6.94842141 18.207495 6.94842141 18.207495 8 21 C11.97754128 21.73334429 11.97754128 21.73334429 16 22 C16.33 14.74 16.66 7.48 17 0 C19.31 0 21.62 0 24 0 C24.14560195 3.72875388 24.23417043 7.45677434 24.3125 11.1875 C24.35439453 12.24259766 24.39628906 13.29769531 24.43945312 14.38476562 C24.56342205 22.24439571 24.56342205 22.24439571 21.65234375 26.1484375 C17.10526586 29.32268628 13.84543892 30.370165 8.375 29.4375 C5.46999152 28.86159481 4.05001983 28.04101973 1.7421875 26.1484375 C-0.94463302 21.29288292 -0.42299377 16.63347694 -0.25 11.1875 C-0.22292969 9.57584961 -0.22292969 9.57584961 -0.1953125 7.93164062 C-0.14829392 5.28684535 -0.0825916 2.64388411 0 0 Z " fill="#000000" transform="translate(275,16)"/>
<path d="M0 0 C3.96 0 7.92 0 12 0 C12 0.66 12 1.32 12 2 C13.32 2 14.64 2 16 2 C16 1.34 16 0.68 16 0 C19.96 0 23.92 0 28 0 C28 0.66 28 1.32 28 2 C29.32 2 30.64 2 32 2 C32 1.34 32 0.68 32 0 C35.96 0 39.92 0 44 0 C44 3.3 44 6.6 44 10 C29.48 10 14.96 10 0 10 C0 6.7 0 3.4 0 0 Z " fill="#C71E46" transform="translate(2,2)"/>
<path d="M0 0 C2.31 0 4.62 0 7 0 C7 9.57 7 19.14 7 29 C4.69 29 2.38 29 0 29 C0 19.43 0 9.86 0 0 Z " fill="#000000" transform="translate(120,16)"/>
<path d="M0 0 C1.0625 1.9375 1.0625 1.9375 2 4 C2.99 4.66 3.98 5.32 5 6 C3.68 6 2.36 6 1 6 C0.67 7.65 0.34 9.3 0 11 C-0.66 11 -1.32 11 -2 11 C-2.66 11.66 -3.32 12.32 -4 13 C-7.50886032 11.59645587 -8.4267148 10.35634177 -10 7 C-10.99 6.34 -11.98 5.68 -13 5 C-12.01 4.34 -11.02 3.68 -10 3 C-9.505 2.484375 -9.01 1.96875 -8.5 1.4375 C-5.77485312 -1.17409909 -3.35607206 -1.40738506 0 0 Z " fill="#BCC1D1" transform="translate(18,19)"/>
<path d="M0 0 C1.25 2.0625 1.25 2.0625 2 4 C1.01 4.33 0.02 4.66 -1 5 C-1.33 5.66 -1.66 6.32 -2 7 C-2.33 6.01 -2.66 5.02 -3 4 C-5.31 4 -7.62 4 -10 4 C-9.25 2.0625 -9.25 2.0625 -8 0 C-5.12489965 -1.24587682 -2.87510035 -1.24587682 0 0 Z " fill="#DFE2E9" transform="translate(18,19)"/>
<path d="M0 0 C0.33 1.32 0.66 2.64 1 4 C1.66 4 2.32 4 3 4 C2.67 6.31 2.34 8.62 2 11 C-1 9 -1 9 -1.8125 6.625 C-2.02089707 3.70744102 -1.53656962 2.4404341 0 0 Z " fill="#AF9F42" transform="translate(40,18)"/>
<path d="M0 0 C2 2 2 2 2.125 4.625 C2.08375 5.40875 2.0425 6.1925 2 7 C0.02 7 -1.96 7 -4 7 C-2.68 4.69 -1.36 2.38 0 0 Z " fill="#CDB63B" transform="translate(17,45)"/>
<path d="M0 0 C0.66 0.33 1.32 0.66 2 1 C2 3.64 2 6.28 2 9 C-2 4.25 -2 4.25 -2 2 C-1.34 2 -0.68 2 0 2 C0 1.34 0 0.68 0 0 Z " fill="#86804C" transform="translate(32,40)"/>
<path d="M0 0 C1.32 0 2.64 0 4 0 C4 1.65 4 3.3 4 5 C2.68 5 1.36 5 0 5 C0 3.35 0 1.7 0 0 Z " fill="#E07E95" transform="translate(11,6)"/>
</svg>
